<?xml version="1.0" encoding="UTF-8" standalone="no"?>
<!-- Created with Inkscape (http://www.inkscape.org/) -->

<svg
   version="1.1"
   id="svg1"
   width="1792"
   height="592"
   viewBox="0 0 1792 592"
   sodipodi:docname="banner.svg"
   inkscape:version="1.4.3 (0d15f75, 2025-12-25)"
   inkscape:export-filename="banner.png"
   inkscape:export-xdpi="96"
   inkscape:export-ydpi="96"
   xmlns:inkscape="http://www.inkscape.org/namespaces/inkscape"
   xmlns:sodipodi="http://sodipodi.sourceforge.net/DTD/sodipodi-0.dtd"
   xmlns="http://www.w3.org/2000/svg"
   xmlns:svg="http://www.w3.org/2000/svg">
  <defs
     id="defs1" />
  <sodipodi:namedview
     id="namedview1"
     pagecolor="#ffffff"
     bordercolor="#000000"
     borderopacity="0.25"
     inkscape:showpageshadow="2"
     inkscape:pageopacity="0.0"
     inkscape:pagecheckerboard="0"
     inkscape:deskcolor="#d1d1d1"
     showgrid="false"
     inkscape:zoom="0.53405624"
     inkscape:cx="948.40198"
     inkscape:cy="628.21099"
     inkscape:window-width="1920"
     inkscape:window-height="1129"
     inkscape:window-x="-8"
     inkscape:window-y="-8"
     inkscape:window-maximized="1"
     inkscape:current-layer="g1" />
  <g
     inkscape:groupmode="layer"
     inkscape:label="Image"
     id="g1">
    <rect
       style="display:inline;fill:#2d3037;fill-opacity:1"
       id="rect15"
       width="1791.9843"
       height="592.03101"
       x="23.074116"
       y="-2.204423"
       inkscape:label="background" />
    <g
       id="g87"
       style="display:inline;fill:#ffffff"
       inkscape:label="white">
      <path
         style="display:inline;fill:#ffffff;fill-opacity:1"
         d="M 566.25421,345.71893 C 582.61741,337.6318 592,322.6103 592,304.5 c 0,-22.59886 -15.57386,-41.60798 -37.38066,-45.62604 -22.57716,-4.16001 -45.4488,13.4003 -49.61363,38.09216 -3.58439,21.25068 9.46798,43.46342 29.99429,51.0448 4.37579,1.6162 7.36725,1.96757 14.63522,1.71905 8.18545,-0.27989 9.91329,-0.69691 16.61899,-4.01104 z"
         id="path60"
         inkscape:label="white" />
      <path
         id="path54"
         style="display:inline;fill:#ffffff;fill-opacity:1"
         inkscape:label="white"
         d="M 815.77539 271.6543 A 32.087196 32.087196 0 0 0 786.32617 291 L 774.77734 291 C 771.53976 291 769.15977 290.99559 767.21875 290.90625 L 713.06445 290.90625 L 713.17969 291 L 685.66016 291 L 658.14062 291 L 652.07031 296.77734 C 648.73145 299.95449 646 303.23103 646 304.05859 C 646 304.88616 648.71382 308.24847 652.03125 311.53125 L 658.0625 317.5 L 685.53125 317.5 C 694.66864 317.5 702.80192 317.53336 707.80273 317.58398 L 783.41406 317.58398 L 786.73047 317.5 L 786.94531 317.82422 L 786.94727 317.82812 A 32.087196 32.087196 0 0 0 813.60938 335.67578 C 813.97618 335.70333 814.3442 335.74424 814.70508 335.75391 A 32.087196 32.087196 0 0 0 815.77539 335.82812 A 32.087196 32.087196 0 0 0 847.86328 303.74023 A 32.087196 32.087196 0 0 0 815.77539 271.6543 z " />
    </g>
    <g
       id="g86"
       style="display:inline;fill:#009a44;fill-opacity:1"
       inkscape:label="green">
      <path
         style="display:inline;fill:#009a44;fill-opacity:1"
         d="m 560.56008,232.06518 c 1.95518,-2.16415 4.87926,-5.60135 6.49796,-7.63821 l 2.94308,-3.70339 -10.75056,-11.15067 c -14.84806,-15.40067 -20.8403,-26.36459 -26.6347,-48.7332 -1.32045,-5.09742 -2.94314,-9.4488 -3.60599,-9.66975 -0.88802,-0.29601 -17.31689,3.46019 -18.70856,4.2774 -0.63706,0.3741 4.03143,18.44047 6.73221,26.05264 6.36954,17.9526 11.90086,26.45264 27.81918,42.75 6.3122,6.4625 11.62878,11.75 11.81462,11.75 0.18583,0 1.93758,-1.77067 3.89276,-3.93482 z"
         id="path77"
         inkscape:label="green" />
      <path
         style="display:inline;fill:#009a44;fill-opacity:1"
         d="m 460.69518,286.23894 4.71247,-7.56085 -5.45383,-4.9266 c -9.98878,-9.02318 -26.58213,-18.65339 -32.26889,-18.72775 -1.28789,-0.0169 -2.79015,2.08669 -5.17228,7.2425 C 418.19907,271.60243 417.31373,275 419.19449,275 c 0.77622,0 4.9875,1.75206 9.35841,3.89346 7.91596,3.8782 17.2202,11.00338 21.53728,16.49323 l 2.27003,2.8867 1.81125,-2.2368 c 0.99619,-1.23024 3.93186,-5.63918 6.52372,-9.79765 z"
         id="path72"
         inkscape:label="green" />
      <path
         style="display:inline;fill:#009a44;fill-opacity:1"
         d="m 616.84798,289.1843 5.19341,-8.31569 -6.23566,-8.68431 c -6.77748,-9.43888 -21.57835,-27.19533 -22.64442,-27.16627 -0.36372,0.01 -2.15613,1.81814 -3.98314,4.01829 l -3.32182,4.00027 5.82182,6.35946 c 9.79477,10.69928 15.57294,22.36669 17.82081,35.9842 0.74353,4.50429 0.58056,4.64168 7.349,-6.19595 z"
         id="path71"
         inkscape:label="green" />
      <path
         id="path70"
         style="display:inline;fill:#009a44;fill-opacity:1"
         inkscape:label="green"
         d="M 139.09766 278.16406 A 25.897552 25.897552 0 0 0 113.19922 304.0625 A 25.897552 25.897552 0 0 0 129.08594 327.88672 C 129.85741 328.23343 130.64722 328.54227 131.45312 328.80469 C 133.33273 329.41673 135.29825 329.7932 137.31641 329.89844 A 25.897552 25.897552 0 0 0 139.09766 329.95898 A 25.897552 25.897552 0 0 0 160.71289 318.32617 L 273.07422 317.66602 C 335.45874 317.30007 397.96563 317.00041 411.97852 317 L 437.45508 317 L 443.22852 310.83984 C 446.40313 307.45148 449 304.17495 449 303.55859 C 449 302.94224 446.33168 299.79765 443.07031 296.57031 L 437.14062 290.70117 L 298.82031 290.24609 L 160.70898 289.79297 A 25.897552 25.897552 0 0 0 139.09766 278.16406 z " />
      <path
         style="display:inline;fill:#009a44;fill-opacity:1"
         d="m 671.83749,347.75 c 5.26462,-10.95311 6.23543,-13.78995 4.87984,-14.25956 -13.51427,-4.68165 -23.85492,-11.16066 -30.23036,-18.94104 -2.05034,-2.50217 -4.01119,-4.54058 -4.35743,-4.52981 -1.0055,0.0313 -11.12954,16.59938 -11.12954,18.2136 0,1.80049 9.79828,11.20964 16.29769,15.65044 4.88467,3.3375 18.25023,9.9328 20.36902,10.05118 0.64169,0.0359 2.51854,-2.74731 4.17078,-6.18481 z"
         id="path59"
         inkscape:label="green" />
      <path
         style="display:inline;fill:#009a44;fill-opacity:1"
         d="m 506.55433,359.92598 3.72468,-5.07402 -4.49914,-4.67598 C 495.29802,339.28211 488.92941,326.31911 487.39281,312.75 c -0.35813,-3.1625 -0.9833,-5.75 -1.38926,-5.75 -0.40597,0 -3.46865,4.46245 -6.80596,9.91657 l -6.06784,9.91656 3.41793,5.67603 C 482.92362,343.09746 500.09692,365 502.02302,365 c 0.44365,0 2.48274,-2.28331 4.53131,-5.07402 z"
         id="path57"
         inkscape:label="green" />
      <path
         style="display:inline;fill:#009a44;fill-opacity:1"
         d="m 577.97013,456.89124 8.14101,-3.10875 -0.66986,-3.14125 c -2.15698,-10.11492 -8.26487,-27.65805 -13.06679,-37.5305 -4.9251,-10.12569 -6.61223,-12.49542 -15.20709,-21.35976 -5.31707,-5.48379 -11.85034,-11.80107 -14.51837,-14.03841 l -4.85098,-4.06789 -3.37176,3.92766 c -1.85447,2.16021 -4.58026,5.62962 -6.0573,7.7098 l -2.68553,3.78213 10.03374,10.21787 c 11.11598,11.31995 16.59595,19.11418 21.179,30.12316 2.70789,6.50464 6.85817,20.02435 8.54776,27.8447 0.77007,3.56427 2.37304,3.51836 12.52617,-0.35876 z"
         id="path16"
         inkscape:label="green" />
    </g>
    <g
       id="g85"
       style="display:inline;fill:#0082a1;fill-opacity:1"
       inkscape:label="blue">
      <path
         style="display:inline;fill:#0082a1;fill-opacity:1"
         d="m 515.4026,214.5724 c -7.62303,-12.42287 -14.20815,-29.32196 -17.91029,-45.96236 -2.00411,-9.00809 -1.16357,-8.79324 -13.82261,-3.53322 l -7.83029,3.2536 0.6337,3.58479 c 1.39131,7.87051 6.98089,26.07261 10.56269,34.39673 2.08544,4.84656 6.35668,13.11015 9.49164,18.36352 l 5.69994,9.55158 7.83708,-7.79112 7.83708,-7.79112 z"
         id="path78"
         inkscape:label="blue" />
      <path
         style="display:inline;fill:#0082a1;fill-opacity:1"
         d="m 584.72068,246.08415 c 5.89632,-7.103 15.34585,-22.44287 21.30423,-34.58415 5.76889,-11.75518 12.86529,-33.32876 13.2778,-40.36551 0.19633,-3.34921 0.1544,-3.38216 -8.65277,-6.79998 -4.86754,-1.88896 -9.2986,-3.28496 -9.84681,-3.10222 -0.54821,0.18274 -2.47948,6.16773 -4.29173,13.29998 -3.47816,13.68863 -7.92245,25.14606 -13.90072,35.83619 -4.23249,7.56841 -14.32717,21.53856 -19.39986,26.84772 -2.60119,2.72244 -3.17097,3.84894 -2.13074,4.21266 8.64604,3.02309 15.38937,5.78657 17.17912,7.04016 1.2022,0.84205 2.42318,1.52289 2.71331,1.51297 0.29012,-0.01 1.9768,-1.76393 3.74817,-3.89782 z"
         id="path76"
         inkscape:label="blue" />
      <path
         id="path82-6"
         style="display:inline;fill:#0082a1;fill-opacity:1"
         d="M 658.49609 221.22656 C 648.34477 220.78257 641.51067 222.23602 632.50781 226.75586 C 625.80522 230.12085 615.60704 237.7468 609.5918 243.89062 L 604.7168 248.86914 L 611.44922 257.49023 L 618.17969 266.10938 L 625.83398 258.82812 C 634.49494 250.59036 640.85754 246.80374 649.94141 244.47656 C 663.54226 240.99218 671.74846 246.05339 690.83203 269.69531 C 695.33686 275.27617 699.85072 280.45117 700.86328 281.19531 C 701.87584 281.93944 705.05468 284.46133 707.92578 286.79883 L 712.96875 290.90625 L 766.29492 290.90625 C 761.76737 290.61121 759.55259 289.71075 753.08789 286.97266 C 733.32326 278.60128 718.31921 268.03099 707.13867 254.59961 C 694.34045 239.22491 683.8576 229.59824 675.31641 225.37695 C 668.56782 222.04162 666.7229 221.58637 658.49609 221.22656 z "
         inkscape:label="blue" />
      <path
         style="display:inline;fill:#0082a1;fill-opacity:1"
         d="m 609.74941,444.25907 c 10.41777,-4.2339 10.15337,-3.74499 7.71129,-14.25907 -3.59374,-15.47243 -9.02749,-29.12509 -18.12855,-45.54922 l -5.56855,-10.04922 -7.79817,7.63227 -7.79817,7.63227 6.20405,12.41695 c 6.55224,13.11382 10.7628,25.01624 13.4543,38.0326 0.89667,4.33639 1.86523,7.88843 2.15235,7.89342 0.28712,0.005 4.68427,-1.68251 9.77145,-3.75 z"
         id="path52"
         inkscape:label="blue" />
      <path
         style="display:inline;fill:#0082a1;fill-opacity:1"
         d="m 498.03684,442.25 c 1.94835,-9.50506 8.54346,-28.55513 13.31183,-38.4514 4.93655,-10.24532 13.38698,-23.32917 20.27441,-31.39099 l 4.4592,-5.21955 -5.29114,-1.70359 c -2.91013,-0.93698 -7.62432,-2.9916 -10.47599,-4.56582 l -5.18485,-2.86221 -2.50568,2.97782 c -9.65566,11.47511 -23.8005,37.39229 -28.93254,53.01229 -3.4143,10.39185 -7.26184,25.83208 -6.55452,26.30342 0.79945,0.53274 18.40913,7.56844 19.04154,7.60778 0.37351,0.0232 1.20949,-2.54525 1.85774,-5.70775 z"
         id="path51"
         inkscape:label="blue" />
      <path
         id="path74"
         style="display:inline;fill:#0082a1;fill-opacity:1"
         inkscape:label="blue"
         d="M 139.09766 144.50977 A 25.897552 25.897552 0 0 0 113.19922 170.4082 A 25.897552 25.897552 0 0 0 127.78516 193.64258 C 128.12616 193.81535 128.46567 193.9984 128.81445 194.15039 A 25.897552 25.897552 0 0 0 130.24219 194.69141 C 130.52262 194.78856 130.80118 194.89319 131.08789 194.97852 A 25.897552 25.897552 0 0 0 139.09766 196.30469 A 25.897552 25.897552 0 0 0 160.63477 184.78906 L 169.29102 185.42383 C 206.45292 188.15273 238.80127 197.0092 268.5 218.75586 C 302.04303 243.31748 331.84178 279.46119 335.64648 284.55273 C 342.15734 284.50173 363.41543 284.73922 370.37109 284.84961 C 362.0962 274.18773 352.89558 262.60059 343.74023 251.62891 C 340.06874 247.22904 330.98008 235.37345 321.08008 225.67383 C 311.18008 215.97421 300.675 208.40129 296 204.79492 C 269.41941 184.29024 237.34411 169.35622 205.48242 162.65039 C 193.9914 160.23191 169.92661 157.00449 163.36914 157.00195 C 162.4643 157.0016 161.70605 156.88403 161.00586 156.59766 A 25.897552 25.897552 0 0 0 139.09766 144.50977 z " />
      <path
         style="display:inline;fill:#0082a1;fill-opacity:1"
         d="m 356.09967,323.13482 c 12.20802,11.69119 25.08917,25.74825 32.40768,32.91439 9.61126,9.41116 15.88722,16.7899 18.9907,19.31798 15.07023,12.27613 33.0911,15.53352 50.23633,9.08008 12.6591,-4.76487 33.75658,-21.18843 31.625,-24.61915 C 487.56946,356.94734 477.82202,344 477.44336,344 c -0.21791,0 -2.76947,2.30229 -5.66992,5.11719 -14.54149,14.11254 -28.21786,18.68158 -41.28906,13.79101 -6.46891,-2.42033 -14.48802,-9.99985 -23.51108,-20.86743 -5.77317,-6.95333 -10.80346,-11.99886 -17.78467,-19.03195 -9.49421,-0.15372 -23.7242,0.008 -33.08896,0.126 z"
         id="path91"
         inkscape:label="blue"
         sodipodi:nodetypes="csssssssscc" />
    </g>
    <g
       id="g84"
       inkscape:label="red"
       style="display:inline;fill:#e7237d;fill-opacity:1">
      <path
         style="display:inline;fill:#e7237d;fill-opacity:1"
         d="m 572.42394,196.43788 c 4.32692,-8.6971 6.65542,-15.12337 9.39693,-25.93392 2.00454,-7.90449 3.32118,-14.69525 2.92586,-15.09056 -1.23621,-1.23621 -18.1469,-5.42003 -18.78411,-4.64732 -0.33287,0.40366 -1.81934,5.65024 -3.30327,11.65908 -1.48393,6.00883 -4.70762,15.16738 -7.16375,20.35231 -3.91609,8.26696 -4.30114,9.66208 -3.12867,11.33601 2.60256,3.71567 12.14858,13.66226 13.21889,13.77358 0.5972,0.0621 3.67436,-5.09001 6.83812,-11.44918 z"
         id="path80"
         inkscape:label="red" />
      <path
         style="display:inline;fill:#e7237d;fill-opacity:1"
         d="m 507.503,255.99515 c 1.33452,-2.15931 13.01091,-9.32715 18.11785,-11.12209 3.83565,-1.34812 7.14274,-3.62253 11.48753,-7.90039 l 6.10125,-6.00725 -6.78829,-7.23271 c -3.73357,-3.97799 -7.04732,-7.34657 -7.3639,-7.48574 -0.31658,-0.13916 -7.50781,6.69003 -15.98052,15.17599 l -15.40493,15.42902 3.86949,5.07401 c 3.96409,5.19806 4.8782,5.822 5.96152,4.06916 z"
         id="path75"
         inkscape:label="red" />
      <path
         style="display:inline;fill:#e7237d;fill-opacity:1"
         d="m 625.45556,325.21772 c 12.661,-20.65905 18.97716,-29.43109 25.61922,-35.58061 7.01774,-6.49736 15.34207,-11.5341 22.60637,-13.67829 l 4.18115,-1.23414 -1.92445,-4.88236 C 672.62073,261.42672 669.0194,255 667.62069,255 c -2.99016,0 -16.21096,6.24565 -22.06809,10.42521 -7.08575,5.05629 -14.90279,13.25508 -20.50895,21.51051 -8.73088,12.85679 -15.19103,24.52977 -16.01458,28.93709 -0.844,4.51669 -0.74124,4.79993 4.30314,11.86085 2.84229,3.97851 5.39279,7.22648 5.66779,7.21771 0.275,-0.009 3.18,-4.38891 6.45556,-9.73365 z"
         id="path69"
         inkscape:label="red" />
      <path
         style="display:inline;fill:#e7237d;fill-opacity:1"
         d="m 437.5529,350.13773 c 10.55821,-5.13127 18.71905,-11.4654 25.62063,-19.88576 6.06433,-7.39885 23.47457,-35.00172 24.39824,-38.6819 0.39745,-1.58358 -0.90001,-4.3884 -4.56426,-9.8669 -2.81576,-4.20991 -5.51983,-7.90177 -6.00906,-8.20413 -0.96992,-0.59944 -4.58856,4.52642 -16.36008,23.17433 -8.11785,12.85994 -19.365,25.84941 -26.10049,30.14381 -2.22083,1.41596 -6.73788,3.57286 -10.03788,4.79312 -7.16706,2.6502 -7.22244,3.09687 -1.81514,14.6397 2.36807,5.05507 4.20262,7.75 5.27573,7.75 0.90486,0 5.2214,-1.73802 9.59231,-3.86227 z"
         id="path58"
         inkscape:label="red" />
      <path
         id="path82"
         style="display:inline;fill:#e7237d;fill-opacity:1"
         d="m 712.9043,317.5 c -0.47474,0.41477 -2.14411,1.63143 -4.11524,2.99218 -5.32229,3.67421 -13.80054,12.41163 -21.50586,22.16211 -15.50229,19.61693 -26.52734,24.99018 -41.13281,20.04688 -3.51446,-1.18949 -8.91446,-3.8865 -12,-5.99414 -6.49101,-4.43384 -19.28184,-17.39865 -23.97656,-24.30274 -1.77648,-2.6125 -3.59858,-4.75 -4.04883,-4.75 -0.45024,0 -1.71268,2.1375 -2.80469,4.75 -1.09202,2.6125 -3.65229,6.92438 -5.68945,9.58203 l -3.70313,4.83204 2.74219,3.66796 c 5.49107,7.3461 20.05822,21.02803 27.66211,25.98047 15.3138,9.97393 28.95356,13.09766 42.16602,9.65625 12.99769,-3.38547 23.3185,-11.11791 36.17578,-27.10351 13.64455,-16.96442 28.75738,-28.52816 48.53906,-37.14063 8.98662,-3.91257 9.61642,-4.06429 21.92969,-4.3789 z"
         inkscape:label="red" />
      <path
         style="display:inline;fill:#e7237d;fill-opacity:1"
         d="m 580.77824,379.25 c 7.07218,-7.0125 13.66901,-13.99058 14.65962,-15.50683 1.78962,-2.73924 1.77975,-2.78782 -1.54546,-7.61095 l -3.34657,-4.85411 -5.02292,3.75233 C 580.44809,358.82155 568.96049,365 566.98652,365 c -0.58879,0 -4.21181,3.01593 -8.05117,6.70208 l -6.98065,6.70207 6.74583,6.79793 c 3.71021,3.73885 7.30234,6.79792 7.98251,6.79792 0.68018,0 7.02302,-5.7375 14.0952,-12.75 z"
         id="path53"
         inkscape:label="red" />
      <path
         style="display:inline;fill:#e7237d;fill-opacity:1"
         d="m 531,458.02096 c 0,-3.71602 7.18041,-26.69518 10.47446,-33.52096 l 3.37812,-7 -4.09209,-5.30728 c -2.25065,-2.91901 -5.47998,-6.40113 -7.17629,-7.73805 -2.89451,-2.28126 -3.16844,-2.32387 -4.45377,-0.69272 -5.60411,7.11185 -18.75811,42.86422 -17.92102,48.70905 0.22611,1.57878 2.28764,2.72378 9.29059,5.16015 4.95,1.72213 9.3375,2.93307 9.75,2.69098 0.4125,-0.24209 0.75,-1.27762 0.75,-2.30117 z"
         id="path15"
         inkscape:label="red" />
      <path
         style="display:inline;fill:#e7237d;fill-opacity:1"
         d="m 367.85379,274.30859 8.39578,10.52735 c 0,0 13.55479,0.078 16.71965,0.0984 4.47215,-5.7299 7.08748,-9.91351 11.63039,-14.63354 22.72148,-23.60733 31.9496,-31.82513 50.75391,-22.47461 9.16038,4.55503 20.76262,15.32907 29.59179,27.47852 l 4.94531,6.80469 2.6504,-5.60352 c 1.45788,-3.0817 4.21249,-7.64998 6.12109,-10.15039 l 3.46875,-4.54492 -5.67774,-7.41407 c -12.56074,-16.39916 -30.28706,-28.97907 -45.69726,-32.42773 -6.05491,-1.35502 -19.98129,-0.85201 -25.81445,0.93164 -10.07644,3.08115 -20.90355,15.06369 -35.3342,29.29116 -9.90377,9.76432 -12.87498,13.33628 -21.75342,22.11704 z"
         id="path89"
         inkscape:label="red"
         sodipodi:nodetypes="cccssccccccssscc" />
      <path
         id="path93"
         style="display:inline;fill:#e7237d;fill-opacity:1"
         inkscape:label="red"
         d="m 337.81836,323.19922 c -9.40152,12.09955 -15.90519,20.60535 -27.24414,31.79101 -18.25567,18.00887 -42.31358,35.51305 -64.5332,46.64063 -23.99062,12.0145 -45.87609,19.32292 -76.27344,22.15039 -4.50559,0.18232 -7.13207,0.33356 -13.11524,-0.22656 -4.87373,-4.99443 -11.55679,-7.81061 -18.53515,-7.81055 -14.30276,5.9e-4 -25.89698,11.59568 -25.89649,25.89844 5.9e-4,14.30199 11.5945,25.89589 25.89649,25.89648 9.25863,5.1e-4 17.81323,-4.94177 22.4375,-12.96289 v -0.002 l 0.26172,-0.25977 11.84179,-0.61328 c 45.98766,-2.38147 90.40912,-22.93948 122.72071,-47.32031 29.66127,-22.38102 42.25368,-36.25687 65.93554,-72.67969 -3.51016,-3.60107 -6.95645,-7.09072 -10.68136,-10.55254 -4.29014,0.0373 -9.66169,-0.0192 -12.81473,0.0506 z"
         sodipodi:nodetypes="cssccccccccssccc" />
    </g>
    <g
       id="g2"
       inkscape:label="texte"
       style="fill:#ffffff">
      <path
         id="path154"
         style="display:inline;fill:#ffffff;fill-opacity:1"
         d="M 1215.5117 409.52148 L 1215.2402 430.49609 C 1215.0912 442.03188 1215.1894 452.04438 1215.459 452.74609 C 1215.7283 453.4478 1217.3133 454.02148 1218.9805 454.02148 L 1222.0117 454.02148 L 1222.0117 444.95898 L 1222.0117 435.89453 L 1225.2363 436.20898 C 1228.2956 436.50629 1228.6343 436.96966 1231.8379 445.27148 C 1235.1464 453.84493 1235.2825 454.02148 1238.5469 454.02148 L 1241.877 454.02148 L 1237.9609 444.39648 L 1234.0449 434.77148 L 1236.4883 431.86719 C 1240.992 426.51445 1241.0247 417.47384 1236.5566 412.27539 C 1234.288 409.63569 1233.8028 409.52148 1224.8516 409.52148 L 1215.5117 409.52148 z M 1222.0117 413.76172 L 1226.7012 414.29102 C 1232.1763 414.90814 1234.0117 416.84062 1234.0117 421.99023 C 1234.0117 427.60218 1231.7354 430.02148 1226.4551 430.02148 L 1222.0117 430.02148 L 1222.0117 421.89258 L 1222.0117 413.76172 z " />
      <path
         id="path152"
         style="display:inline;fill:#ffffff;fill-opacity:1"
         d="M 1661.0117 409.02148 L 1661.0117 431.52148 L 1661.0117 454.02148 L 1664.0117 454.02148 L 1667.0117 454.02148 L 1667.0117 445.02148 L 1667.0117 436.02148 L 1670.2734 436.02148 C 1673.4545 436.02148 1673.6167 436.23997 1677.0117 445.02148 C 1680.3859 453.74921 1680.5892 454.02148 1683.6855 454.02148 L 1686.877 454.02148 L 1682.9375 444.33594 L 1678.9961 434.64844 L 1681.6895 431.83594 C 1685.4008 427.9621 1686.0965 419.07557 1683.0664 414.24805 C 1680.4231 410.03684 1677.587 409.02148 1668.4473 409.02148 L 1661.0117 409.02148 z M 1667.0117 414.02148 L 1671.0117 414.02148 C 1676.4765 414.02148 1679.0117 416.66673 1679.0117 422.36719 C 1679.0117 427.88961 1676.8313 430.02148 1671.1836 430.02148 L 1667.0117 430.02148 L 1667.0117 422.02148 L 1667.0117 414.02148 z " />
      <path
         style="display:inline;fill:#ffffff;fill-opacity:1"
         d="m 1633.0117,409.02148 h 11 11 v 2.5 c 0,2.4583 -0.1333,2.5 -8,2.5 h -8 v 7 7 h 7 c 6.8,0 7,0.0714 7,2.5 0,2.4286 -0.2,2.5 -7,2.5 h -7 v 8 8 h 8.5 c 8.4,0 8.5,0.0294 8.5,2.5 v 2.5 h -11.5 -11.5 v -22.5 z"
         id="path150" />
      <path
         style="display:inline;fill:#ffffff;fill-opacity:1"
         d="m 1445.0117,409.02148 h 13 13 v 2.5 c 0,2.33333 -0.3333,2.5 -5,2.5 h -5 v 20 20 h -3 -3 v -20 -20 h -5 c -4.6667,0 -5,-0.16667 -5,-2.5 z"
         id="path149" />
      <path
         style="display:inline;fill:#ffffff;fill-opacity:1"
         d="m 1379.0117,409.02148 h 11 11 v 2.5 c 0,2.4583 -0.1333,2.5 -8,2.5 h -8 v 7 7 h 7 c 6.8,0 7,0.0714 7,2.5 0,2.4286 -0.2,2.5 -7,2.5 h -7 v 8 8 h 8 c 7.8667,0 8,0.0417 8,2.5 v 2.5 h -11 -11 v -22.5 z"
         id="path148" />
      <path
         style="display:inline;fill:#ffffff;fill-opacity:1"
         d="m 1279.0879,409.02148 h 2.8301 c 2.4214,0 3.1213,0.68398 4.8691,4.75 1.123,2.6125 4.5595,10.15067 7.6348,16.75 l 5.5898,11.99805 v -16.74805 -16.75 h 3 3 v 22.5 22.5 l -3.25,-0.0312 c -3.2205,-0.0317 -3.3134,-0.17384 -10.25,-15.57031 -3.85,-8.5455 -7.225,-15.68764 -7.5,-15.87304 -0.2752,-0.18541 -0.355,6.81983 -0.1797,15.56835 l 0.3184,15.90625 h -3.0098 c -1.6554,0 -3.1483,-0.3375 -3.3183,-0.75 -0.1698,-0.4125 -0.1799,-10.5375 -0.022,-22.5 z"
         id="path147" />
      <path
         id="path146"
         style="display:inline;fill:#ffffff;fill-opacity:1"
         d="M 1258.918 409.02148 C 1257.1423 409.02148 1255.9625 409.64975 1255.6328 410.77148 C 1255.3499 411.73398 1252.6248 421.1313 1249.5781 431.6543 C 1246.5315 442.1773 1243.7475 451.54863 1243.3906 452.47852 C 1242.8491 453.8897 1243.2889 454.11568 1246.0508 453.8457 C 1249.1135 453.54632 1249.4683 453.1309 1250.8145 448.27148 C 1252.2407 443.12297 1252.3435 443.01997 1256.1406 442.92188 C 1258.2701 442.86687 1261.2344 442.77766 1262.7285 442.72266 C 1265.2254 442.63076 1265.5573 443.08338 1266.8359 448.32227 C 1268.1292 453.62106 1268.4324 454.02148 1271.1211 454.02148 C 1272.7118 454.02148 1274.0117 453.73397 1274.0117 453.38281 C 1274.0117 453.03165 1272.7129 448.19415 1271.125 442.63281 C 1269.5371 437.07147 1266.7643 427.23398 1264.9629 420.77148 C 1261.7896 409.38741 1261.6019 409.02148 1258.918 409.02148 z M 1258.9238 420.36133 C 1259.593 420.30525 1260.2313 422.73499 1261.4883 427.74023 C 1262.3471 431.16004 1263.3154 434.64754 1263.6387 435.49023 C 1264.1195 436.74318 1263.2954 437.02148 1259.1191 437.02148 C 1256.3102 437.02148 1254.0173 436.68398 1254.0273 436.27148 C 1254.0373 435.85898 1255.1126 431.69648 1256.4199 427.02148 C 1257.6397 422.65956 1258.2952 420.41403 1258.9238 420.36133 z " />
      <path
         id="path144"
         style="display:inline;fill:#ffffff;fill-opacity:1"
         d="M 1185.0117 409.02148 L 1185.0117 431.62109 L 1185.0117 454.2207 L 1194.0957 453.87109 C 1202.9049 453.53212 1203.2663 453.42327 1206.0957 450.25586 C 1208.4999 447.56448 1209.0117 446.10553 1209.0117 441.95703 C 1209.0117 436.85888 1206.8267 431.02148 1204.918 431.02148 C 1204.3447 431.02148 1204.8784 429.61673 1206.1016 427.89844 C 1210.288 422.01926 1208.2576 412.20569 1202.3945 409.97656 C 1201.0125 409.45111 1196.5365 409.02148 1192.4473 409.02148 L 1185.0117 409.02148 z M 1191.0117 414.02148 L 1194.8223 414.02148 C 1200.3518 414.02148 1202.4668 415.95887 1202.4668 421.02148 C 1202.4668 426.08409 1200.3518 428.02148 1194.8223 428.02148 L 1191.0117 428.02148 L 1191.0117 421.02148 L 1191.0117 414.02148 z M 1191.0117 433.02148 L 1195.3574 433.02148 C 1201.0232 433.02148 1203.0117 435.17244 1203.0117 441.29492 C 1203.0117 446.80873 1200.6558 449.02148 1194.7891 449.02148 L 1191.0117 449.02148 L 1191.0117 441.02148 L 1191.0117 433.02148 z " />
      <path
         id="path141"
         style="display:inline;fill:#ffffff;fill-opacity:1"
         d="M 1142.0117 409.02148 L 1142.0117 431.52148 L 1142.0117 454.02148 L 1145.0117 454.02148 L 1148.0117 454.02148 L 1148.0117 445.02148 L 1148.0117 436.02148 L 1151.3047 436.02148 C 1154.5346 436.02148 1154.6594 436.19137 1157.957 445.02148 C 1161.251 453.84217 1161.3834 454.02148 1164.5977 454.02148 L 1167.877 454.02148 L 1163.9375 444.33594 L 1159.9961 434.64844 L 1162.6699 431.85742 C 1166.108 428.26882 1167.0721 419.97287 1164.6055 415.20312 C 1162.2309 410.6111 1158.3651 409.02148 1149.5625 409.02148 L 1142.0117 409.02148 z M 1148.0117 413.76172 L 1152.7012 414.29102 C 1158.3203 414.92437 1160.0117 416.83739 1160.0117 422.55859 C 1160.0117 427.87636 1157.7613 430.02148 1152.1836 430.02148 L 1148.0117 430.02148 L 1148.0117 421.89258 L 1148.0117 413.76172 z " />
      <path
         style="display:inline;fill:#ffffff;fill-opacity:1"
         d="m 1109.0117,409.02148 h 3 3 v 17.06641 c 0,20.61768 0.7614,22.88477 7.6934,22.91797 5.7133,0.0274 6.3066,-2.06203 6.3066,-22.20703 v -17.77735 h 3 3 v 17.53321 c 0,19.12368 -0.7966,22.97938 -5.3769,25.98047 -6.7168,4.40104 -15.5461,2.06621 -18.7344,-4.95313 -1.5607,-3.43613 -1.8472,-6.71221 -1.8652,-21.31055 z"
         id="path139" />
      <path
         style="display:inline;fill:#ffffff;fill-opacity:1"
         d="m 1070.084,409.02148 c 1.6105,0 2.926,0.3375 2.916,0.75 -0.01,0.4125 -2.4818,6.77341 -5.5,14.13477 -5.1462,12.55168 -5.4883,13.90469 -5.4883,21.75 v 8.36523 h -3 -3 v -8.92382 c 0,-8.56659 -0.2202,-9.44565 -5.5,-21.98633 -3.025,-7.18497 -5.5,-13.32385 -5.5,-13.64063 0,-0.31682 1.4625,-0.43406 3.25,-0.26172 3.1419,0.30294 3.3664,0.63625 6.75,10.05274 1.925,5.35718 3.7776,9.745 4.1153,9.75 0.5903,0.009 1.2305,-1.53617 5.9101,-14.24024 1.9187,-5.20864 2.3945,-5.75 5.0469,-5.75 z"
         id="path138" />
      <path
         style="display:inline;fill:#ffffff;fill-opacity:1"
         d="m 1008.0117,409.02148 h 11.5 11.5 v 2.5 c 0,2.4706 -0.1,2.5 -8.5,2.5 h -8.5 v 7 7 h 7.5 c 7.3333,0 7.5,0.0556 7.5,2.5 0,2.4445 -0.1667,2.5 -7.5,2.5 h -7.5 v 8.06446 8.0625 l 8.25,-0.22266 8.25,-0.22461 0.3164,2.66016 0.3164,2.66015 h -11.5664 -11.5664 v -22.5 z"
         id="path137" />
      <path
         id="path136"
         style="display:inline;fill:#ffffff;fill-opacity:1"
         d="M 961.08008 409.02148 C 959.1552 409.02148 957.96617 409.62283 957.61914 410.77148 C 955.06772 419.21665 946.01172 452.21239 946.01172 453.06445 C 946.01172 453.6645 947.23218 454.01193 948.72266 453.83789 C 951.06755 453.5641 951.64547 452.78052 953.01758 448.02148 C 953.88973 444.99648 955.14623 442.56609 955.80859 442.62109 C 956.47095 442.67609 959.41604 442.78859 962.35352 442.87109 L 967.69336 443.02148 L 968.92578 448.52148 C 970.07479 453.65577 970.35041 454.02148 973.08398 454.02148 C 974.69454 454.02148 976.01172 453.77426 976.01172 453.4707 C 976.01172 453.16714 973.31172 443.28936 970.01172 431.52148 C 966.71172 419.7536 964.01172 409.87778 964.01172 409.57422 C 964.01172 409.27066 962.69302 409.02148 961.08008 409.02148 z M 960.75781 418.52148 L 962.32617 424.02148 C 963.18881 427.04648 964.33488 431.20898 964.87305 433.27148 L 965.85156 437.02148 L 960.93164 437.02148 C 958.22597 437.02148 956.03289 436.68398 956.05859 436.27148 C 956.08429 435.85898 957.15245 431.69648 958.43164 427.02148 L 960.75781 418.52148 z " />
      <path
         style="display:inline;fill:#ffffff;fill-opacity:1"
         d="m 921.01172,409.02148 h 11 11 v 2.5 c 0,2.4583 -0.13334,2.5 -8,2.5 h -8 v 7 7 h 7 c 6.8,0 7,0.0714 7,2.5 0,2.4286 -0.2,2.5 -7,2.5 h -7 v 8 8 h 8 c 7.86666,0 8,0.0417 8,2.5 v 2.5 h -11 -11 v -22.5 z"
         id="path134" />
      <path
         style="display:inline;fill:#ffffff;fill-opacity:1"
         d="m 879.0293,409.00977 c 2.21495,0.0473 2.26303,1.30907 4.98437,18.45703 1.95663,12.32922 2.99805,16.41366 2.99805,11.75976 0,-1.17036 0.85861,-5.85721 1.90625,-10.41601 1.04763,-4.5588 2.434,-10.90303 3.08203,-14.09766 1.10407,-5.4428 1.34356,-5.789 3.8125,-5.5 2.56221,0.29991 2.72187,0.73564 5.77539,15.80859 1.72701,8.525 3.39191,14.825 3.69922,14 0.30731,-0.825 1.51342,-7.53397 2.68164,-14.91015 1.16822,-7.37618 2.35746,-13.78868 2.64258,-14.25 0.75713,-1.22508 5.40039,-1.02691 5.40039,0.23047 0,1.09427 -6.58834,37.56571 -7.54102,41.74414 -0.4172,1.82981 -1.09626,2.24765 -3.24414,2 -2.66601,-0.3074 -2.77642,-0.61041 -6.17578,-16.68946 l -3.46289,-16.375 -3.44727,16.625 -3.44726,16.625 h -2.83984 c -1.56222,0 -2.8418,-0.18364 -2.8418,-0.4082 0,-0.22456 -1.8,-10.22072 -4,-22.21484 -2.2,-11.99412 -4,-21.93548 -4,-22.0918 0,-0.15632 1.31557,-0.28516 2.92187,-0.28516 0.41893,0 0.77929,-0.0185 1.09571,-0.0117 z"
         id="path133" />
      <path
         style="display:inline;fill:#ffffff;fill-opacity:1"
         d="m 999.96289,409.00195 c 0.31661,-0.003 0.67501,0.0195 1.09571,0.0195 1.6241,0 2.9531,0.35764 2.9531,0.79297 0,0.69511 -6.37187,24.19217 -10.56443,38.95703 -1.26958,4.47102 -1.84929,5.25 -3.9043,5.25 -1.32718,0 -2.62098,-0.3375 -2.875,-0.75 -0.4935,-0.80139 -11.65625,-42.58121 -11.65625,-43.62695 0,-0.34188 1.28165,-0.62305 2.84766,-0.62305 h 2.84765 l 3.82031,15.75 c 2.10127,8.6625 4.10016,16.3121 4.44141,16.99805 0.34124,0.68596 2.1355,-4.93904 3.98828,-12.5 4.65218,-18.98498 4.78969,-20.24846 7.00586,-20.26758 z"
         id="path132" />
      <path
         style="display:inline;fill:#ffffff;fill-opacity:1"
         d="m 1567.0117,408.96484 13.25,0.27735 c 12.8824,0.27128 13.2597,0.34171 13.5703,2.52929 0.2986,2.10226 -0.046,2.25 -5.25,2.25 h -5.5703 v 20 20 h -3 -3 v -20 -20 h -5 c -4.682,0 -5,-0.16113 -5,-2.52929 z"
         id="path131" />
      <path
         style="display:inline;fill:#ffffff;fill-opacity:1"
         d="m 1541.0117,408.95703 11.25,0.28125 c 10.4891,0.26363 11.25,0.41848 11.25,2.2832 0,1.81492 -0.7635,2.02746 -8.25,2.29102 l -8.25,0.29102 v 6.95898 6.95898 h 6.9414 c 7.1223,0 8.5184,0.63904 7.4551,3.41016 -0.4762,1.24083 -2.1234,1.58984 -7.502,1.58984 h -6.8945 v 8 8 h 8.5 c 8.4,0 8.5,0.0294 8.5,2.5 v 2.5 h -11.5 -11.5 v -22.5332 z"
         id="path130" />
      <path
         style="display:inline;fill:#ffffff;fill-opacity:1"
         d="m 1625.0117,408.88867 v 22.63281 22.63282 l -2.75,-0.31641 -2.75,-0.31641 -0.2851,-10.25 -0.2832,-10.25 h -7.4668 -7.4649 v 10.5 10.5 h -3 -3 v -22.5 -22.5 h 3 3 v 9.5 9.5 h 8.1016 8.0996 l -0.3496,-9.25 -0.3516,-9.25 2.75,-0.3164 z"
         id="path129" />
      <path
         style="display:inline;fill:#ffffff;fill-opacity:1"
         d="m 1345.0117,408.88867 2.75,0.31641 2.75,0.3164 -0.045,9.25 -0.045,9.25 h 7.7949 7.7949 v -9.5 -9.5 h 3 3 v 22.5 22.5 h -3 -3 v -10.5 -10.5 h -7.5 -7.5 v 10.5 10.5 h -3 -3 v -22.5664 z"
         id="path128" />
      <path
         style="display:inline;fill:#ffffff;fill-opacity:1"
         d="m 1522.375,408.4707 c 2.8916,0.1742 5.719,1.21423 7.6543,3.06836 2.5009,2.39596 4.9536,7.68643 4.9766,10.73242 0,0.4125 -1.3078,0.75 -2.9141,0.75 -2.4088,0 -3.032,-0.50774 -3.5566,-2.89648 -1.4517,-6.60954 -8.8883,-8.20844 -12.9239,-2.7793 -1.836,2.46993 -2.0921,4.16083 -2.0371,13.5 0.085,14.47015 2.013,18.17578 9.4492,18.17578 4.0852,0 5.9883,-2.38683 5.9883,-7.50976 0,-4.32586 -0.036,-4.37234 -3.75,-4.67969 -3.2557,-0.26946 -3.7917,-0.67305 -4.0664,-3.06055 l -0.3164,-2.75 h 7.0664 7.0664 v 8.59961 c 0,8.24177 -0.1217,8.71309 -2.9629,11.36719 -1.6304,1.52299 -4.3866,3.05466 -6.125,3.40234 -4.7808,0.95617 -6.1345,0.7923 -9.9277,-1.19335 -2.1649,-1.13325 -4.3365,-3.48472 -5.7344,-6.21094 -1.9502,-3.80317 -2.248,-5.92524 -2.248,-15.92578 0,-12.8052 1.2115,-16.71882 6.3242,-20.4668 2.1902,-1.6056 5.1455,-2.29725 8.0371,-2.12305 z"
         id="path127" />
      <path
         id="path126"
         style="display:inline;fill:#ffffff;fill-opacity:1"
         d="M 1090.3418 408.39453 C 1085.4275 408.20506 1080.3459 411.02956 1077.7637 416.09375 C 1076.3985 418.77088 1076.0137 422.05214 1076.0137 431.06055 C 1076.0137 441.0392 1076.3158 443.20172 1078.2617 447.06055 C 1082.0207 454.51494 1089.975 456.89785 1096.6035 452.55469 C 1101.6503 449.24795 1102.4918 446.54235 1102.8125 432.56836 C 1103.1448 418.09375 1102.176 414.61849 1096.6895 410.59375 C 1094.775 409.18935 1092.5756 408.48063 1090.3418 408.39453 z M 1089.5215 414.0625 C 1091.4122 414.06818 1093.304 414.68701 1094.418 415.91797 C 1098.4461 420.36904 1098.7264 441.57389 1094.8223 446.53711 C 1091.8608 450.30203 1086.5814 450.00492 1084.1055 445.93359 C 1080.2939 439.6659 1080.6332 420.30823 1084.6328 415.88867 C 1085.7408 414.66439 1087.6308 414.0565 1089.5215 414.0625 z " />
      <path
         id="path124"
         style="display:inline;fill:#ffffff;fill-opacity:1"
         d="M 1488.1426 408.36523 C 1483.6181 408.42583 1479.0677 411.07837 1476.3691 416.29688 C 1474.2421 420.4101 1473.4633 434.07035 1474.9473 441.21094 C 1475.5976 444.34002 1477.0775 448.10496 1478.2363 449.57812 C 1482.4501 454.93519 1490.0375 456.20118 1495.7012 452.49023 C 1500.2405 449.51594 1501.9662 443.75473 1501.9902 431.48438 C 1502.0092 421.99901 1501.6952 419.8186 1499.7617 415.98438 C 1497.1659 410.83677 1492.6671 408.30463 1488.1426 408.36523 z M 1488.2246 414.08984 C 1488.9518 414.11654 1489.7344 414.23648 1490.5742 414.44727 C 1494.6745 415.47637 1496.0078 419.73369 1496.0078 431.72266 C 1496.0078 440.72443 1495.675 443.06253 1494.0234 445.77148 C 1491.4046 450.06662 1486.222 450.37453 1483.1113 446.41992 C 1480.3814 442.9495 1479.68 438.59356 1480.2129 428.43945 C 1480.7447 418.30691 1483.1345 413.90298 1488.2246 414.08984 z " />
      <path
         style="display:inline;fill:#ffffff;fill-opacity:1"
         d="m 1325.7793,408.3125 c 6.6418,-0.32311 13.2324,6.04749 13.2324,13.23633 0,2.24593 -0.3738,2.56174 -2.7129,2.28906 -2.16,-0.25178 -2.8494,-0.97935 -3.373,-3.56055 -0.9319,-4.59414 -2.6573,-6.25586 -6.4961,-6.25586 -6.7066,0 -9.1616,6.31301 -8.1563,20.98047 0.6168,8.99927 2.5967,13.56814 6.1739,14.25196 4.171,0.79734 6.9613,-1.29155 8.0078,-5.9961 0.8343,-3.75087 1.263,-4.23633 3.75,-4.23633 2.4003,0 2.8066,0.40145 2.8066,2.76563 0,4.21814 -3.2798,9.53481 -7.084,11.48242 -4.0447,2.07073 -6.3368,2.14469 -10.5,0.33203 -6.9197,-3.01284 -10.0464,-11.93386 -9.1621,-26.14258 0.7238,-11.63162 4.5254,-17.55477 12.1875,-18.99218 0.4413,-0.0828 0.8834,-0.13276 1.3262,-0.1543 z"
         id="path122" />
      <path
         style="display:inline;fill:#ffffff;fill-opacity:1"
         d="m 1417.9199,408.26562 c 1.1192,-0.03 2.1767,0.27847 3.8262,0.90626 4.3696,1.66306 8.2656,6.87863 8.2656,11.06445 0,2.59411 -0.3059,2.88279 -2.75,2.60156 -2.0662,-0.23774 -2.8334,-0.93807 -3.0898,-2.81641 -1.1372,-8.33282 -12.1602,-7.95575 -12.1602,0.41602 0,3.78423 1.5096,5.35979 8.5,8.86328 6.7942,3.40512 8.7044,5.78545 9.2578,11.54492 0.5985,6.22881 -1.667,10.82382 -6.291,12.75586 -6.4243,2.68424 -13.0736,0.7534 -16.4433,-4.77344 -2.6706,-4.38032 -2.6144,-7.41763 0.1503,-8.14062 2.8515,-0.74569 3.8262,-0.0487 3.8262,2.73828 0,3.25011 3.0588,5.5957 7.2949,5.5957 4.0754,0 5.7051,-1.93196 5.7051,-6.75976 0,-3.45666 -2.6366,-6.05794 -9.3476,-9.22461 -5.6897,-2.68478 -8.6385,-6.90701 -8.6485,-12.36133 -0.01,-5.47573 2.6436,-9.3538 7.711,-11.28906 1.8924,-0.72273 3.0741,-1.09109 4.1933,-1.1211 z"
         id="path121" />
      <path
         style="display:inline;fill:#ffffff;fill-opacity:1"
         d="m 1205.0117,268.99219 v 12.51562 12.51367 h -28.9394 c -15.9175,0 -29.1064,-0.3375 -29.3067,-0.75 -0.2004,-0.4125 -0.3386,-5.925 -0.3086,-12.25 l 0.055,-11.5 29.25,-0.26367 z"
         id="path120" />
      <path
         style="display:inline;fill:#ffffff;fill-opacity:1"
         d="m 990.01172,233.02148 h 23.49998 23.5 v 44.5 44.5 h 10.0332 10.0313 l -0.2813,11.75 -0.2832,11.75 -5,0.0391 c -2.75,0.0208 -17.7125,-0.0987 -33.25,-0.26563 l -28.24998,-0.30469 v -11.48437 -11.48438 h 9.99998 10 v -33 -33 h -10 -9.99998 v -11.5 z"
         id="path119" />
      <path
         style="display:inline;fill:#ffffff;fill-opacity:1"
         d="m 1590.7363,231.18359 c 8.776,0.23503 17.0947,3.84728 22.1035,10.76172 l 2.8145,3.88477 4.4277,-4.54297 c 2.4355,-2.49913 6.9028,-5.71164 9.9278,-7.13867 7.3518,-3.4682 20.9997,-3.70654 28.0507,-0.49024 9.9627,4.5445 15.7272,13.04112 17.8829,26.36328 0.6064,3.74737 1.0586,23.12165 1.0586,45.75 l 0.01,39.25 h -14 -14 l -0.022,-39.25 c -0.02,-36.39505 -0.1605,-39.55422 -1.9218,-43.43359 -4.3776,-9.64206 -16.2667,-9.60693 -23.4942,0.0684 -1.9895,2.66331 -2.0727,4.15888 -2.3554,42.6875 l -0.293,39.92773 h -13.9141 -13.914 l -0.293,-40.79492 c -0.3268,-45.62405 -0.1976,-44.80597 -7.4961,-47.85547 -7.7116,-3.2221 -16.8033,1.60967 -19.1875,10.19727 -0.7057,2.54209 -1.1035,17.24884 -1.1035,41.20312 l -0.01,37.25 h -14.0078 -14.0079 l 0.2579,-55.75 0.2578,-55.75 11.6738,-0.28125 11.6738,-0.28125 0.7012,5.61329 0.7012,5.61132 3.625,-3.49609 c 6.8416,-6.59708 16.0756,-9.73893 24.8515,-9.50391 z"
         id="path118" />
      <path
         id="path117"
         style="display:inline;fill:#ffffff;fill-opacity:1"
         d="M 920.57031 231.16016 C 917.72232 231.1235 914.79974 231.39347 911.83594 231.97656 C 888.97248 236.47467 876.01111 255.91885 875.80859 286.02148 C 875.71689 299.65628 877.08001 307.03406 881.45508 316.5625 C 887.30946 329.31274 897.91925 337.45961 912.01172 340.02734 C 923.97509 342.20713 934.76044 339.69424 942.46484 332.92969 L 946.31641 329.54688 L 945.78516 338.85742 C 945.35018 346.48621 944.73784 349.17775 942.38477 353.76758 C 938.34858 361.64043 933.68944 364.02148 922.33008 364.02148 C 912.74254 364.02148 905.01587 361.77712 898.23242 357.02148 C 895.87884 355.37146 893.55351 354.02148 893.06445 354.02148 C 892.10135 354.02148 890.16646 357.05335 884.92578 366.76758 L 881.55469 373.01367 L 884.00195 374.76758 C 899.55704 385.91877 921.3996 390.23055 940.01172 385.82227 C 951.91861 383.00212 961.87272 374.8165 967.17383 363.48828 C 972.55063 351.99832 972.93826 346.90774 972.97656 287.27148 L 973.01172 233.02148 L 961.53125 233.02148 L 950.05078 233.02148 L 949.44336 235.77148 C 947.7047 243.65461 947.94194 243.50949 943.29883 239.53516 C 936.98843 234.13368 929.1143 231.27012 920.57031 231.16016 z M 924 255.31055 C 932.03578 254.90292 940.34385 259.08658 943.53906 267.45312 C 944.88904 270.98799 945.13022 274.63703 944.83984 287.15625 C 944.43365 304.66908 942.91617 309.81438 936.88867 314.11328 C 932.21857 317.44406 920.02241 318.07028 915.4707 315.21289 C 911.20586 312.53559 907.29145 307.61613 905.94531 303.24023 C 904.15516 297.421 903.62265 281.686 904.98047 274.72656 C 905.64631 271.31382 907.12946 266.8401 908.27734 264.78516 C 911.66412 258.72211 917.74995 255.62759 924 255.31055 z " />
      <path
         id="path115"
         style="display:inline;fill:#ffffff;fill-opacity:1"
         d="M 1349.5781 231.03711 C 1335.9757 231.07031 1323.9955 235.87749 1314.9316 244.94141 C 1304.3315 255.54156 1299.8127 268.67483 1299.7637 289.02148 C 1299.7437 297.53652 1300.2669 303.59366 1301.4062 308.02148 C 1306.1066 326.28684 1316.9087 339.16301 1332.0449 344.54492 C 1342.8458 348.38537 1357.5796 348.52231 1368.4746 344.88281 C 1384.401 339.56257 1393.9813 328.78822 1399.1914 310.33203 C 1402.0365 300.25385 1402.2757 281.10115 1399.6895 270.52148 C 1393.5122 245.2509 1375.3919 230.97421 1349.5781 231.03711 z M 1350.5117 255.1875 C 1356.2844 255.1875 1362.0571 257.17572 1365.7129 261.15234 C 1370.6804 266.55596 1372.4281 272.68879 1372.8301 286.14453 C 1373.2816 301.25191 1372.0174 308.2917 1367.6934 314.76172 C 1362.8826 321.96001 1353.8012 325.18977 1344.6582 322.95312 C 1335.0443 320.60129 1329.3911 311.46094 1328.2051 296.35156 C 1326.9125 279.88241 1329.3939 267.58834 1335.3105 261.15234 C 1338.9663 257.17572 1344.739 255.1875 1350.5117 255.1875 z " />
      <path
         id="path113"
         style="display:inline;fill:#ffffff;fill-opacity:1"
         d="M 1468.502 231.01367 C 1464.1598 230.98406 1459.7248 231.47364 1455.2891 232.51953 C 1446.0226 234.70446 1440.3958 237.73116 1433.3457 244.32617 C 1422.223 254.7309 1416.9953 269.1533 1417.0293 289.33789 C 1417.0833 320.90076 1431.7253 341.79005 1457.1328 346.55273 C 1465.8769 348.19182 1476.9991 347.58952 1485.2266 345.03125 C 1493.4084 342.48717 1499.0022 338.90718 1504.9258 332.42578 C 1510.9858 325.79523 1512.9669 322.19467 1516.1543 312.00977 C 1518.1578 305.6077 1518.4939 302.41882 1518.5039 290.02148 C 1518.5139 273.54484 1517.4477 267.9085 1512.3262 257.3457 C 1504.3993 240.99673 1487.3178 231.142 1468.502 231.01367 z M 1467.8516 255.55078 C 1473.2035 255.57138 1476.4968 256.11078 1478.7812 257.33789 C 1487.3502 261.94077 1491.6578 274.74226 1490.7539 292.92383 C 1489.9777 308.53504 1485.8258 317.55124 1477.4355 321.84375 C 1474.5314 323.32945 1466.0972 324.06268 1462.5117 323.14062 C 1451.4288 320.2906 1446.1221 310.86403 1445.2715 292.52148 C 1444.4547 274.90712 1447.7968 264.24177 1455.9277 258.52148 C 1459.7808 255.81073 1460.9302 255.52408 1467.8516 255.55078 z " />
      <path
         style="display:inline;fill:#ffffff;fill-opacity:1"
         d="m 1077.2539,203.02148 h 13.3789 13.3789 v 15.5 15.5 h 13 13 v 11.5 11.5 h -13.0683 -13.0684 l 0.3184,28.75 c 0.2922,26.35906 0.4805,29.01813 2.2597,31.95899 3.2446,5.36307 6.5207,5.9566 22.5137,4.08008 2.7265,-0.31992 3.1333,0.99105 4.4316,14.33398 0.7214,7.4146 0.8477,7.27381 -8.8867,9.82031 -6.5759,1.72026 -22.2437,1.25361 -28.3164,-0.84375 -9.7994,-3.38449 -15.7347,-11.47631 -18.6035,-25.36523 -1.2165,-5.88932 -1.5801,-13.9847 -1.5801,-35.19141 v -27.54297 h -8.5312 -8.5332 l 0.2832,-11.25 0.2812,-11.25 8.1465,-0.28906 8.1465,-0.28711 0.7246,-15.46289 z"
         id="path111" />
      <path
         style="display:inline;fill:#ffffff;fill-opacity:1"
         d="m 1212.0117,186.02148 h 24.5 24.5 v 63.03321 c 0,69.49296 -0.1233,68.03938 6.1914,71.99804 2.6983,1.69106 4.5102,2.00319 9.8086,1.6836 3.575,-0.21564 7.1374,-0.5766 7.916,-0.80274 1.7023,-0.4944 2.5434,2.84397 3.5118,13.94532 l 0.6894,7.90625 -3.3086,1.22851 c -4.2401,1.57292 -22.1557,2.22005 -27.0898,0.97852 -12.5431,-3.15613 -21.4944,-13.26568 -24.5879,-27.76953 -0.7579,-3.55316 -1.1309,-22.41671 -1.1309,-57.25 v -51.95118 h -10.5 -10.5 v -11.5 z"
         id="path110" />
      <path
         style="display:inline;fill:#ffffff;fill-opacity:1"
         d="m 1022.7227,183.31641 c 1.3404,0.0662 2.7218,0.2827 4.1308,0.66211 15.1089,4.06841 17.4496,24.29325 3.5938,31.05859 -12.0056,5.86194 -24.4356,-1.77627 -24.4356,-15.01563 0,-10.24772 7.3278,-17.16841 16.711,-16.70507 z"
         id="path2" />
    </g>
  </g>
</svg>
