<?xml version="1.0" encoding="UTF-8" standalone="no"?>
<!-- Created with Inkscape (http://www.inkscape.org/) -->

<svg
   version="1.1"
   id="svg1"
   width="1792"
   height="592"
   viewBox="0 0 1792 592"
   sodipodi:docname="banner-adaptive.svg"
   inkscape:version="1.4.3 (0d15f75, 2025-12-25)"
   inkscape:export-filename="banner.png"
   inkscape:export-xdpi="96"
   inkscape:export-ydpi="96"
   xmlns:inkscape="http://www.inkscape.org/namespaces/inkscape"
   xmlns:sodipodi="http://sodipodi.sourceforge.net/DTD/sodipodi-0.dtd"
   xmlns="http://www.w3.org/2000/svg"
   xmlns:svg="http://www.w3.org/2000/svg">
  <defs>
    id="defs1"
    <style>
      .color {
        fill: #141416;
      }

      @media (prefers-color-scheme: dark) {
        .color {
          fill: #ffffff;
        }
      }
    </style>
  </defs>
  <sodipodi:namedview
     id="namedview1"
     pagecolor="#ffff00"
     bordercolor="#000000"
     borderopacity="0.25"
     inkscape:showpageshadow="2"
     inkscape:pageopacity="0.0"
     inkscape:pagecheckerboard="0"
     inkscape:deskcolor="#d1d1d1"
     showgrid="false"
     inkscape:zoom="0.46821683"
     inkscape:cx="885.27361"
     inkscape:cy="312.88922"
     inkscape:window-width="1920"
     inkscape:window-height="1129"
     inkscape:window-x="-8"
     inkscape:window-y="-8"
     inkscape:window-maximized="1"
     inkscape:current-layer="g1" />
  <g
     inkscape:groupmode="layer"
     inkscape:label="Image"
     id="g1">
    <path
       id="path40"
       class="color"
       style="display:inline"
       d="M 546.17578 258.30273 C 526.61613 259.21459 508.65009 275.36142 505.00586 296.9668 C 501.42147 318.21748 514.47369 340.43034 535 348.01172 C 539.37579 349.62792 542.3668 349.97899 549.63477 349.73047 C 557.82022 349.45058 559.54821 349.03288 566.25391 345.71875 C 582.61711 337.63162 592 322.6103 592 304.5 C 592 281.90114 576.42594 262.89111 554.61914 258.87305 C 551.797 258.35305 548.97002 258.17247 546.17578 258.30273 z M 815.77539 271.6543 A 32.087196 32.087196 0 0 0 786.32617 291 L 774.77734 291 C 771.53976 291 769.15977 290.99595 767.21875 290.90625 L 713.06445 290.90625 L 713.17969 291 L 685.66016 291 L 658.14062 291 L 652.07031 296.77734 C 648.73145 299.95449 646 303.23103 646 304.05859 C 646 304.88616 648.71382 308.24847 652.03125 311.53125 L 658.0625 317.5 L 685.53125 317.5 C 694.66864 317.5 702.80192 317.53338 707.80273 317.58398 L 783.41406 317.58398 L 786.73047 317.5 L 786.94531 317.82422 L 786.94727 317.82812 A 32.087196 32.087196 0 0 0 813.60938 335.67578 C 813.97618 335.70338 814.3442 335.74431 814.70508 335.75391 A 32.087196 32.087196 0 0 0 815.77539 335.82812 A 32.087196 32.087196 0 0 0 847.86328 303.74023 A 32.087196 32.087196 0 0 0 815.77539 271.6543 z "
       inkscape:label="needle" />
    <g
       id="g86"
       style="display:inline;fill:#009a44;fill-opacity:1"
       inkscape:label="green">
      <path
         style="display:inline;fill:#009a44;fill-opacity:1"
         d="m 560.56008,232.06518 c 1.95518,-2.16415 4.87926,-5.60135 6.49796,-7.63821 l 2.94308,-3.70339 -10.75056,-11.15067 c -14.84806,-15.40067 -20.8403,-26.36459 -26.6347,-48.7332 -1.32045,-5.09742 -2.94314,-9.4488 -3.60599,-9.66975 -0.88802,-0.29601 -17.31689,3.46019 -18.70856,4.2774 -0.63706,0.3741 4.03143,18.44047 6.73221,26.05264 6.36954,17.9526 11.90086,26.45264 27.81918,42.75 6.3122,6.4625 11.62878,11.75 11.81462,11.75 0.18583,0 1.93758,-1.77067 3.89276,-3.93482 z"
         id="path77"
         inkscape:label="green" />
      <path
         style="display:inline;fill:#009a44;fill-opacity:1"
         d="m 460.69518,286.23894 4.71247,-7.56085 -5.45383,-4.9266 c -9.98878,-9.02318 -26.58213,-18.65339 -32.26889,-18.72775 -1.28789,-0.0169 -2.79015,2.08669 -5.17228,7.2425 C 418.19907,271.60243 417.31373,275 419.19449,275 c 0.77622,0 4.9875,1.75206 9.35841,3.89346 7.91596,3.8782 17.2202,11.00338 21.53728,16.49323 l 2.27003,2.8867 1.81125,-2.2368 c 0.99619,-1.23024 3.93186,-5.63918 6.52372,-9.79765 z"
         id="path72"
         inkscape:label="green" />
      <path
         style="display:inline;fill:#009a44;fill-opacity:1"
         d="m 616.84798,289.1843 5.19341,-8.31569 -6.23566,-8.68431 c -6.77748,-9.43888 -21.57835,-27.19533 -22.64442,-27.16627 -0.36372,0.01 -2.15613,1.81814 -3.98314,4.01829 l -3.32182,4.00027 5.82182,6.35946 c 9.79477,10.69928 15.57294,22.36669 17.82081,35.9842 0.74353,4.50429 0.58056,4.64168 7.349,-6.19595 z"
         id="path71"
         inkscape:label="green" />
      <path
         id="path70"
         style="display:inline;fill:#009a44;fill-opacity:1"
         inkscape:label="green"
         d="M 139.09766 278.16406 A 25.897552 25.897552 0 0 0 113.19922 304.0625 A 25.897552 25.897552 0 0 0 129.08594 327.88672 C 129.85741 328.23343 130.64722 328.54227 131.45312 328.80469 C 133.33273 329.41673 135.29825 329.7932 137.31641 329.89844 A 25.897552 25.897552 0 0 0 139.09766 329.95898 A 25.897552 25.897552 0 0 0 160.71289 318.32617 L 273.07422 317.66602 C 335.45874 317.30007 397.96563 317.00041 411.97852 317 L 437.45508 317 L 443.22852 310.83984 C 446.40313 307.45148 449 304.17495 449 303.55859 C 449 302.94224 446.33168 299.79765 443.07031 296.57031 L 437.14062 290.70117 L 298.82031 290.24609 L 160.70898 289.79297 A 25.897552 25.897552 0 0 0 139.09766 278.16406 z " />
      <path
         style="display:inline;fill:#009a44;fill-opacity:1"
         d="m 671.83749,347.75 c 5.26462,-10.95311 6.23543,-13.78995 4.87984,-14.25956 -13.51427,-4.68165 -23.85492,-11.16066 -30.23036,-18.94104 -2.05034,-2.50217 -4.01119,-4.54058 -4.35743,-4.52981 -1.0055,0.0313 -11.12954,16.59938 -11.12954,18.2136 0,1.80049 9.79828,11.20964 16.29769,15.65044 4.88467,3.3375 18.25023,9.9328 20.36902,10.05118 0.64169,0.0359 2.51854,-2.74731 4.17078,-6.18481 z"
         id="path59"
         inkscape:label="green" />
      <path
         style="display:inline;fill:#009a44;fill-opacity:1"
         d="m 506.55433,359.92598 3.72468,-5.07402 -4.49914,-4.67598 C 495.29802,339.28211 488.92941,326.31911 487.39281,312.75 c -0.35813,-3.1625 -0.9833,-5.75 -1.38926,-5.75 -0.40597,0 -3.46865,4.46245 -6.80596,9.91657 l -6.06784,9.91656 3.41793,5.67603 C 482.92362,343.09746 500.09692,365 502.02302,365 c 0.44365,0 2.48274,-2.28331 4.53131,-5.07402 z"
         id="path57"
         inkscape:label="green" />
      <path
         style="display:inline;fill:#009a44;fill-opacity:1"
         d="m 577.97013,456.89124 8.14101,-3.10875 -0.66986,-3.14125 c -2.15698,-10.11492 -8.26487,-27.65805 -13.06679,-37.5305 -4.9251,-10.12569 -6.61223,-12.49542 -15.20709,-21.35976 -5.31707,-5.48379 -11.85034,-11.80107 -14.51837,-14.03841 l -4.85098,-4.06789 -3.37176,3.92766 c -1.85447,2.16021 -4.58026,5.62962 -6.0573,7.7098 l -2.68553,3.78213 10.03374,10.21787 c 11.11598,11.31995 16.59595,19.11418 21.179,30.12316 2.70789,6.50464 6.85817,20.02435 8.54776,27.8447 0.77007,3.56427 2.37304,3.51836 12.52617,-0.35876 z"
         id="path16"
         inkscape:label="green" />
    </g>
    <g
       id="g85"
       style="display:inline;fill:#0082a1;fill-opacity:1"
       inkscape:label="blue">
      <path
         style="display:inline;fill:#0082a1;fill-opacity:1"
         d="m 515.4026,214.5724 c -7.62303,-12.42287 -14.20815,-29.32196 -17.91029,-45.96236 -2.00411,-9.00809 -1.16357,-8.79324 -13.82261,-3.53322 l -7.83029,3.2536 0.6337,3.58479 c 1.39131,7.87051 6.98089,26.07261 10.56269,34.39673 2.08544,4.84656 6.35668,13.11015 9.49164,18.36352 l 5.69994,9.55158 7.83708,-7.79112 7.83708,-7.79112 z"
         id="path78"
         inkscape:label="blue" />
      <path
         style="display:inline;fill:#0082a1;fill-opacity:1"
         d="m 584.72068,246.08415 c 5.89632,-7.103 15.34585,-22.44287 21.30423,-34.58415 5.76889,-11.75518 12.86529,-33.32876 13.2778,-40.36551 0.19633,-3.34921 0.1544,-3.38216 -8.65277,-6.79998 -4.86754,-1.88896 -9.2986,-3.28496 -9.84681,-3.10222 -0.54821,0.18274 -2.47948,6.16773 -4.29173,13.29998 -3.47816,13.68863 -7.92245,25.14606 -13.90072,35.83619 -4.23249,7.56841 -14.32717,21.53856 -19.39986,26.84772 -2.60119,2.72244 -3.17097,3.84894 -2.13074,4.21266 8.64604,3.02309 15.38937,5.78657 17.17912,7.04016 1.2022,0.84205 2.42318,1.52289 2.71331,1.51297 0.29012,-0.01 1.9768,-1.76393 3.74817,-3.89782 z"
         id="path76"
         inkscape:label="blue" />
      <path
         id="path82-6"
         style="display:inline;fill:#0082a1;fill-opacity:1"
         d="M 658.49609 221.22656 C 648.34477 220.78257 641.51067 222.23602 632.50781 226.75586 C 625.80522 230.12085 615.60704 237.7468 609.5918 243.89062 L 604.7168 248.86914 L 611.44922 257.49023 L 618.17969 266.10938 L 625.83398 258.82812 C 634.49494 250.59036 640.85754 246.80374 649.94141 244.47656 C 663.54226 240.99218 671.74846 246.05339 690.83203 269.69531 C 695.33686 275.27617 699.85072 280.45117 700.86328 281.19531 C 701.87584 281.93944 705.05468 284.46133 707.92578 286.79883 L 712.96875 290.90625 L 766.29492 290.90625 C 761.76737 290.61121 759.55259 289.71075 753.08789 286.97266 C 733.32326 278.60128 718.31921 268.03099 707.13867 254.59961 C 694.34045 239.22491 683.8576 229.59824 675.31641 225.37695 C 668.56782 222.04162 666.7229 221.58637 658.49609 221.22656 z "
         inkscape:label="blue" />
      <path
         style="display:inline;fill:#0082a1;fill-opacity:1"
         d="m 609.74941,444.25907 c 10.41777,-4.2339 10.15337,-3.74499 7.71129,-14.25907 -3.59374,-15.47243 -9.02749,-29.12509 -18.12855,-45.54922 l -5.56855,-10.04922 -7.79817,7.63227 -7.79817,7.63227 6.20405,12.41695 c 6.55224,13.11382 10.7628,25.01624 13.4543,38.0326 0.89667,4.33639 1.86523,7.88843 2.15235,7.89342 0.28712,0.005 4.68427,-1.68251 9.77145,-3.75 z"
         id="path52"
         inkscape:label="blue" />
      <path
         style="display:inline;fill:#0082a1;fill-opacity:1"
         d="m 498.03684,442.25 c 1.94835,-9.50506 8.54346,-28.55513 13.31183,-38.4514 4.93655,-10.24532 13.38698,-23.32917 20.27441,-31.39099 l 4.4592,-5.21955 -5.29114,-1.70359 c -2.91013,-0.93698 -7.62432,-2.9916 -10.47599,-4.56582 l -5.18485,-2.86221 -2.50568,2.97782 c -9.65566,11.47511 -23.8005,37.39229 -28.93254,53.01229 -3.4143,10.39185 -7.26184,25.83208 -6.55452,26.30342 0.79945,0.53274 18.40913,7.56844 19.04154,7.60778 0.37351,0.0232 1.20949,-2.54525 1.85774,-5.70775 z"
         id="path51"
         inkscape:label="blue" />
      <path
         id="path74"
         style="display:inline;fill:#0082a1;fill-opacity:1"
         inkscape:label="blue"
         d="M 139.09766 144.50977 A 25.897552 25.897552 0 0 0 113.19922 170.4082 A 25.897552 25.897552 0 0 0 127.78516 193.64258 C 128.12616 193.81535 128.46567 193.9984 128.81445 194.15039 A 25.897552 25.897552 0 0 0 130.24219 194.69141 C 130.52262 194.78856 130.80118 194.89319 131.08789 194.97852 A 25.897552 25.897552 0 0 0 139.09766 196.30469 A 25.897552 25.897552 0 0 0 160.63477 184.78906 L 169.29102 185.42383 C 206.45292 188.15273 238.80127 197.0092 268.5 218.75586 C 302.04303 243.31748 331.84178 279.46119 335.64648 284.55273 C 342.15734 284.50173 363.41543 284.73922 370.37109 284.84961 C 362.0962 274.18773 352.89558 262.60059 343.74023 251.62891 C 340.06874 247.22904 330.98008 235.37345 321.08008 225.67383 C 311.18008 215.97421 300.675 208.40129 296 204.79492 C 269.41941 184.29024 237.34411 169.35622 205.48242 162.65039 C 193.9914 160.23191 169.92661 157.00449 163.36914 157.00195 C 162.4643 157.0016 161.70605 156.88403 161.00586 156.59766 A 25.897552 25.897552 0 0 0 139.09766 144.50977 z " />
      <path
         style="display:inline;fill:#0082a1;fill-opacity:1"
         d="m 356.09967,323.13482 c 12.20802,11.69119 25.08917,25.74825 32.40768,32.91439 9.61126,9.41116 15.88722,16.7899 18.9907,19.31798 15.07023,12.27613 33.0911,15.53352 50.23633,9.08008 12.6591,-4.76487 33.75658,-21.18843 31.625,-24.61915 C 487.56946,356.94734 477.82202,344 477.44336,344 c -0.21791,0 -2.76947,2.30229 -5.66992,5.11719 -14.54149,14.11254 -28.21786,18.68158 -41.28906,13.79101 -6.46891,-2.42033 -14.48802,-9.99985 -23.51108,-20.86743 -5.77317,-6.95333 -10.80346,-11.99886 -17.78467,-19.03195 -9.49421,-0.15372 -23.7242,0.008 -33.08896,0.126 z"
         id="path91"
         inkscape:label="blue"
         sodipodi:nodetypes="csssssssscc" />
    </g>
    <g
       id="g84"
       inkscape:label="red"
       style="display:inline;fill:#e7237d;fill-opacity:1">
      <path
         style="display:inline;fill:#e7237d;fill-opacity:1"
         d="m 572.42394,196.43788 c 4.32692,-8.6971 6.65542,-15.12337 9.39693,-25.93392 2.00454,-7.90449 3.32118,-14.69525 2.92586,-15.09056 -1.23621,-1.23621 -18.1469,-5.42003 -18.78411,-4.64732 -0.33287,0.40366 -1.81934,5.65024 -3.30327,11.65908 -1.48393,6.00883 -4.70762,15.16738 -7.16375,20.35231 -3.91609,8.26696 -4.30114,9.66208 -3.12867,11.33601 2.60256,3.71567 12.14858,13.66226 13.21889,13.77358 0.5972,0.0621 3.67436,-5.09001 6.83812,-11.44918 z"
         id="path80"
         inkscape:label="red" />
      <path
         style="display:inline;fill:#e7237d;fill-opacity:1"
         d="m 507.503,255.99515 c 1.33452,-2.15931 13.01091,-9.32715 18.11785,-11.12209 3.83565,-1.34812 7.14274,-3.62253 11.48753,-7.90039 l 6.10125,-6.00725 -6.78829,-7.23271 c -3.73357,-3.97799 -7.04732,-7.34657 -7.3639,-7.48574 -0.31658,-0.13916 -7.50781,6.69003 -15.98052,15.17599 l -15.40493,15.42902 3.86949,5.07401 c 3.96409,5.19806 4.8782,5.822 5.96152,4.06916 z"
         id="path75"
         inkscape:label="red" />
      <path
         style="display:inline;fill:#e7237d;fill-opacity:1"
         d="m 625.45556,325.21772 c 12.661,-20.65905 18.97716,-29.43109 25.61922,-35.58061 7.01774,-6.49736 15.34207,-11.5341 22.60637,-13.67829 l 4.18115,-1.23414 -1.92445,-4.88236 C 672.62073,261.42672 669.0194,255 667.62069,255 c -2.99016,0 -16.21096,6.24565 -22.06809,10.42521 -7.08575,5.05629 -14.90279,13.25508 -20.50895,21.51051 -8.73088,12.85679 -15.19103,24.52977 -16.01458,28.93709 -0.844,4.51669 -0.74124,4.79993 4.30314,11.86085 2.84229,3.97851 5.39279,7.22648 5.66779,7.21771 0.275,-0.009 3.18,-4.38891 6.45556,-9.73365 z"
         id="path69"
         inkscape:label="red" />
      <path
         style="display:inline;fill:#e7237d;fill-opacity:1"
         d="m 437.5529,350.13773 c 10.55821,-5.13127 18.71905,-11.4654 25.62063,-19.88576 6.06433,-7.39885 23.47457,-35.00172 24.39824,-38.6819 0.39745,-1.58358 -0.90001,-4.3884 -4.56426,-9.8669 -2.81576,-4.20991 -5.51983,-7.90177 -6.00906,-8.20413 -0.96992,-0.59944 -4.58856,4.52642 -16.36008,23.17433 -8.11785,12.85994 -19.365,25.84941 -26.10049,30.14381 -2.22083,1.41596 -6.73788,3.57286 -10.03788,4.79312 -7.16706,2.6502 -7.22244,3.09687 -1.81514,14.6397 2.36807,5.05507 4.20262,7.75 5.27573,7.75 0.90486,0 5.2214,-1.73802 9.59231,-3.86227 z"
         id="path58"
         inkscape:label="red" />
      <path
         id="path82"
         style="display:inline;fill:#e7237d;fill-opacity:1"
         d="m 712.9043,317.5 c -0.47474,0.41477 -2.14411,1.63143 -4.11524,2.99218 -5.32229,3.67421 -13.80054,12.41163 -21.50586,22.16211 -15.50229,19.61693 -26.52734,24.99018 -41.13281,20.04688 -3.51446,-1.18949 -8.91446,-3.8865 -12,-5.99414 -6.49101,-4.43384 -19.28184,-17.39865 -23.97656,-24.30274 -1.77648,-2.6125 -3.59858,-4.75 -4.04883,-4.75 -0.45024,0 -1.71268,2.1375 -2.80469,4.75 -1.09202,2.6125 -3.65229,6.92438 -5.68945,9.58203 l -3.70313,4.83204 2.74219,3.66796 c 5.49107,7.3461 20.05822,21.02803 27.66211,25.98047 15.3138,9.97393 28.95356,13.09766 42.16602,9.65625 12.99769,-3.38547 23.3185,-11.11791 36.17578,-27.10351 13.64455,-16.96442 28.75738,-28.52816 48.53906,-37.14063 8.98662,-3.91257 9.61642,-4.06429 21.92969,-4.3789 z"
         inkscape:label="red" />
      <path
         style="display:inline;fill:#e7237d;fill-opacity:1"
         d="m 580.77824,379.25 c 7.07218,-7.0125 13.66901,-13.99058 14.65962,-15.50683 1.78962,-2.73924 1.77975,-2.78782 -1.54546,-7.61095 l -3.34657,-4.85411 -5.02292,3.75233 C 580.44809,358.82155 568.96049,365 566.98652,365 c -0.58879,0 -4.21181,3.01593 -8.05117,6.70208 l -6.98065,6.70207 6.74583,6.79793 c 3.71021,3.73885 7.30234,6.79792 7.98251,6.79792 0.68018,0 7.02302,-5.7375 14.0952,-12.75 z"
         id="path53"
         inkscape:label="red" />
      <path
         style="display:inline;fill:#e7237d;fill-opacity:1"
         d="m 531,458.02096 c 0,-3.71602 7.18041,-26.69518 10.47446,-33.52096 l 3.37812,-7 -4.09209,-5.30728 c -2.25065,-2.91901 -5.47998,-6.40113 -7.17629,-7.73805 -2.89451,-2.28126 -3.16844,-2.32387 -4.45377,-0.69272 -5.60411,7.11185 -18.75811,42.86422 -17.92102,48.70905 0.22611,1.57878 2.28764,2.72378 9.29059,5.16015 4.95,1.72213 9.3375,2.93307 9.75,2.69098 0.4125,-0.24209 0.75,-1.27762 0.75,-2.30117 z"
         id="path15"
         inkscape:label="red" />
      <path
         style="display:inline;fill:#e7237d;fill-opacity:1"
         d="m 367.85379,274.30859 8.39578,10.52735 c 0,0 13.01303,0.078 16.17789,0.0984 5.46537,-6.27166 8.17474,-9.73453 12.80794,-14.90602 21.86373,-24.40388 31.31381,-31.55265 50.11812,-22.20213 9.16038,4.55503 20.76262,15.32907 29.59179,27.47852 l 4.94531,6.80469 2.6504,-5.60352 c 1.45788,-3.0817 4.21249,-7.64998 6.12109,-10.15039 l 3.46875,-4.54492 -5.67774,-7.41407 c -12.56074,-16.39916 -30.28706,-28.97907 -45.69726,-32.42773 -6.05491,-1.35502 -19.98129,-0.85201 -25.81445,0.93164 -10.07644,3.08115 -21.31722,14.65596 -35.3342,29.29116 -11.01437,11.50016 -12.49944,13.20095 -21.75342,22.11702 z"
         id="path89"
         inkscape:label="red"
         sodipodi:nodetypes="cccssccccccsssc" />
      <path
         id="path93"
         style="display:inline;fill:#e7237d;fill-opacity:1"
         inkscape:label="red"
         d="m 337.81836,323.19922 c -9.40152,12.09955 -15.90519,20.60535 -27.24414,31.79101 -18.25567,18.00887 -42.31358,35.51305 -64.5332,46.64063 -23.99062,12.0145 -45.87609,19.32292 -76.27344,22.15039 -4.50559,0.18232 -7.13207,0.33356 -13.11524,-0.22656 -4.87373,-4.99443 -11.55679,-7.81061 -18.53515,-7.81055 -14.30276,5.9e-4 -25.89698,11.59568 -25.89649,25.89844 5.9e-4,14.30199 11.5945,25.89589 25.89649,25.89648 9.25863,5.1e-4 17.81323,-4.94177 22.4375,-12.96289 v -0.002 l 0.26172,-0.25977 11.84179,-0.61328 c 45.98766,-2.38147 90.40912,-22.93948 122.72071,-47.32031 29.66127,-22.38102 42.25368,-36.25687 65.93554,-72.67969 -3.51016,-3.60107 -6.95645,-7.09072 -10.68136,-10.55254 -4.29014,0.0373 -9.66169,-0.0192 -12.81473,0.0506 z"
         sodipodi:nodetypes="cssccccccccssccc" />
    </g>
    <path
       id="path38"
       class="color"
       style="display:inline"
       d="M 1020.9883 183.31445 C 1012.4517 183.73053 1006.0117 190.41425 1006.0117 200.02148 C 1006.0117 213.26084 1018.4417 220.89905 1030.4473 215.03711 C 1044.3031 208.27177 1041.9624 188.04693 1026.8535 183.97852 C 1025.4445 183.59911 1024.0631 183.38261 1022.7227 183.31641 C 1022.1362 183.28741 1021.5574 183.28675 1020.9883 183.31445 z M 1212.0117 186.02148 L 1212.0117 197.52148 L 1212.0117 209.02148 L 1222.5117 209.02148 L 1233.0117 209.02148 L 1233.0117 260.97266 C 1233.0117 295.80595 1233.3847 314.6695 1234.1426 318.22266 C 1237.2361 332.72651 1246.1874 342.83606 1258.7305 345.99219 C 1263.6646 347.23372 1281.5802 346.58659 1285.8203 345.01367 L 1289.1289 343.78516 L 1288.4395 335.87891 C 1287.4711 324.77756 1286.63 321.43919 1284.9277 321.93359 C 1284.1491 322.15973 1280.5867 322.52069 1277.0117 322.73633 C 1271.7133 323.05592 1269.9014 322.74333 1267.2031 321.05273 C 1260.8884 317.09407 1261.0117 318.54765 1261.0117 249.05469 L 1261.0117 186.02148 L 1236.5117 186.02148 L 1212.0117 186.02148 z M 1077.2539 203.02148 L 1076.5293 218.48242 L 1075.8047 233.94531 L 1067.6582 234.23242 L 1059.5117 234.52148 L 1059.2305 245.77148 L 1058.9473 257.02148 L 1067.4805 257.02148 L 1076.0117 257.02148 L 1076.0117 284.56445 C 1076.0117 305.77116 1076.3753 313.86654 1077.5918 319.75586 C 1080.4606 333.64478 1086.3959 341.7366 1096.1953 345.12109 C 1102.268 347.21845 1117.9358 347.6851 1124.5117 345.96484 C 1134.2461 343.41834 1134.1198 343.55913 1133.3984 336.14453 C 1132.1001 322.8016 1131.6933 321.49063 1128.9668 321.81055 C 1112.9738 323.68707 1109.6977 323.09354 1106.4531 317.73047 C 1104.6739 314.78961 1104.4856 312.13054 1104.1934 285.77148 L 1103.875 257.02148 L 1116.9434 257.02148 L 1130.0117 257.02148 L 1130.0117 245.52148 L 1130.0117 234.02148 L 1117.0117 234.02148 L 1104.0117 234.02148 L 1104.0117 218.52148 L 1104.0117 203.02148 L 1090.6328 203.02148 L 1077.2539 203.02148 z M 1468.502 231.01367 C 1464.1598 230.98407 1459.7248 231.47364 1455.2891 232.51953 C 1446.0226 234.70446 1440.3958 237.73116 1433.3457 244.32617 C 1422.223 254.7309 1416.9953 269.1533 1417.0293 289.33789 C 1417.0833 320.90076 1431.7253 341.79005 1457.1328 346.55273 C 1465.8769 348.19182 1476.9991 347.58952 1485.2266 345.03125 C 1493.4084 342.48717 1499.0022 338.90718 1504.9258 332.42578 C 1510.9858 325.79523 1512.9669 322.19467 1516.1543 312.00977 C 1518.1578 305.6077 1518.4939 302.41882 1518.5039 290.02148 C 1518.5139 273.54484 1517.4477 267.9085 1512.3262 257.3457 C 1504.3993 240.99673 1487.3178 231.142 1468.502 231.01367 z M 1349.5781 231.03711 C 1335.9757 231.07031 1323.9955 235.87749 1314.9316 244.94141 C 1304.3315 255.54156 1299.8127 268.67483 1299.7637 289.02148 C 1299.7437 297.53652 1300.2669 303.59366 1301.4062 308.02148 C 1306.1066 326.28684 1316.9087 339.16301 1332.0449 344.54492 C 1342.8458 348.38537 1357.5796 348.52231 1368.4746 344.88281 C 1384.401 339.56257 1393.9813 328.78822 1399.1914 310.33203 C 1402.0365 300.25385 1402.2757 281.10115 1399.6895 270.52148 C 1393.5122 245.2509 1375.3919 230.97421 1349.5781 231.03711 z M 920.57031 231.16016 C 917.72232 231.12346 914.79974 231.39347 911.83594 231.97656 C 888.97248 236.47467 876.01111 255.91885 875.80859 286.02148 C 875.71689 299.65628 877.08001 307.03406 881.45508 316.5625 C 887.30946 329.31274 897.91925 337.45961 912.01172 340.02734 C 923.97509 342.20713 934.76044 339.69424 942.46484 332.92969 L 946.31641 329.54688 L 945.78516 338.85742 C 945.35018 346.48621 944.73784 349.17775 942.38477 353.76758 C 938.34858 361.64043 933.68944 364.02148 922.33008 364.02148 C 912.74254 364.02148 905.01587 361.77712 898.23242 357.02148 C 895.87884 355.37146 893.55351 354.02148 893.06445 354.02148 C 892.10135 354.02148 890.16646 357.05335 884.92578 366.76758 L 881.55469 373.01367 L 884.00195 374.76758 C 899.55704 385.91877 921.3996 390.23055 940.01172 385.82227 C 951.91861 383.00212 961.87272 374.8165 967.17383 363.48828 C 972.55063 351.99832 972.93826 346.90774 972.97656 287.27148 L 973.01172 233.02148 L 961.53125 233.02148 L 950.05078 233.02148 L 949.44336 235.77148 C 947.7047 243.65461 947.94194 243.50949 943.29883 239.53516 C 936.98843 234.13368 929.1143 231.27012 920.57031 231.16016 z M 1590.7344 231.18359 C 1581.9585 230.94857 1572.7244 234.09042 1565.8828 240.6875 L 1562.2578 244.18359 L 1561.5566 238.57227 L 1560.8555 232.95898 L 1549.1816 233.24023 L 1537.5078 233.52148 L 1537.25 289.27148 L 1536.9922 345.02148 L 1551 345.02148 L 1565.0078 345.02148 L 1565.0176 307.77148 C 1565.0176 283.8172 1565.4154 269.11045 1566.1211 266.56836 C 1568.5053 257.98076 1577.597 253.14899 1585.3086 256.37109 C 1592.6071 259.42059 1592.4779 258.60251 1592.8047 304.22656 L 1593.0977 345.02148 L 1607.0117 345.02148 L 1620.9258 345.02148 L 1621.2188 305.09375 C 1621.5014 266.56513 1621.5847 265.06956 1623.5742 262.40625 C 1630.8017 252.73092 1642.6908 252.69587 1647.0684 262.33789 C 1648.8297 266.21726 1648.9702 269.37643 1648.9902 305.77148 L 1649.0117 345.02148 L 1663.0117 345.02148 L 1677.0117 345.02148 L 1677.002 305.77148 C 1677.002 283.14313 1676.5498 263.76885 1675.9434 260.02148 C 1673.7877 246.69932 1668.0232 238.2027 1658.0605 233.6582 C 1651.0095 230.4419 1637.3616 230.68024 1630.0098 234.14844 C 1626.9848 235.57547 1622.5175 238.78798 1620.082 241.28711 L 1615.6543 245.83008 L 1612.8398 241.94531 C 1607.831 235.03087 1599.5123 231.41862 1590.7363 231.18359 L 1590.7344 231.18359 z M 990.01172 233.02148 L 990.01172 244.52148 L 990.01172 256.02148 L 1000.0117 256.02148 L 1010.0117 256.02148 L 1010.0117 289.02148 L 1010.0117 322.02148 L 1000.0117 322.02148 L 990.01172 322.02148 L 990.01172 333.50586 L 990.01172 344.99023 L 1018.2617 345.29492 C 1033.7992 345.46185 1048.7617 345.58135 1051.5117 345.56055 L 1056.5117 345.52148 L 1056.7949 333.77148 L 1057.0762 322.02148 L 1047.0449 322.02148 L 1037.0117 322.02148 L 1037.0117 277.52148 L 1037.0117 233.02148 L 1013.5117 233.02148 L 990.01172 233.02148 z M 1350.5117 255.1875 C 1356.2844 255.1875 1362.0571 257.17572 1365.7129 261.15234 C 1370.6804 266.55596 1372.4281 272.68879 1372.8301 286.14453 C 1373.2816 301.25191 1372.0174 308.2917 1367.6934 314.76172 C 1362.8826 321.96001 1353.8012 325.18978 1344.6582 322.95312 C 1335.0443 320.60129 1329.3911 311.46094 1328.2051 296.35156 C 1326.9125 279.88241 1329.3939 267.58834 1335.3105 261.15234 C 1338.9663 257.17572 1344.739 255.1875 1350.5117 255.1875 z M 924 255.31055 C 932.03578 254.90292 940.34385 259.08659 943.53906 267.45312 C 944.88904 270.988 945.13022 274.63703 944.83984 287.15625 C 944.43365 304.66908 942.91617 309.81438 936.88867 314.11328 C 932.21857 317.44406 920.02241 318.07028 915.4707 315.21289 C 911.20586 312.53559 907.29145 307.61613 905.94531 303.24023 C 904.15516 297.421 903.62265 281.686 904.98047 274.72656 C 905.64631 271.31382 907.12946 266.8401 908.27734 264.78516 C 911.66412 258.72211 917.74995 255.62759 924 255.31055 z M 1467.8516 255.55078 C 1473.2035 255.57138 1476.4968 256.11078 1478.7812 257.33789 C 1487.3502 261.94077 1491.6578 274.74226 1490.7539 292.92383 C 1489.9777 308.53504 1485.8258 317.55124 1477.4355 321.84375 C 1474.5314 323.32945 1466.0972 324.06268 1462.5117 323.14062 C 1451.4288 320.29061 1446.1221 310.86403 1445.2715 292.52148 C 1444.4547 274.90712 1447.7968 264.24177 1455.9277 258.52148 C 1459.7808 255.81073 1460.9302 255.52408 1467.8516 255.55078 z M 1205.0117 268.99219 L 1175.7617 269.25781 L 1146.5117 269.52148 L 1146.457 281.02148 C 1146.427 287.34648 1146.5652 292.85898 1146.7656 293.27148 C 1146.9659 293.68398 1160.1548 294.02148 1176.0723 294.02148 L 1205.0117 294.02148 L 1205.0117 281.50781 L 1205.0117 268.99219 z M 1417.9199 408.26562 C 1416.8007 408.29562 1415.619 408.66399 1413.7266 409.38672 C 1408.6592 411.32198 1406.0056 415.20005 1406.0156 420.67578 C 1406.0256 426.1301 1408.9744 430.35233 1414.6641 433.03711 C 1421.3751 436.20378 1424.0117 438.80506 1424.0117 442.26172 C 1424.0117 447.08952 1422.382 449.02148 1418.3066 449.02148 C 1414.0705 449.02148 1411.0117 446.67589 1411.0117 443.42578 C 1411.0117 440.6388 1410.037 439.94181 1407.1855 440.6875 C 1404.4208 441.41049 1404.3646 444.44781 1407.0352 448.82812 C 1410.4049 454.35496 1417.0542 456.2858 1423.4785 453.60156 C 1428.1025 451.66952 1430.368 447.07451 1429.7695 440.8457 C 1429.2161 435.08623 1427.3059 432.7059 1420.5117 429.30078 C 1413.5213 425.79729 1412.0117 424.22173 1412.0117 420.4375 C 1412.0117 412.06573 1423.0347 411.68866 1424.1719 420.02148 C 1424.4283 421.89982 1425.1955 422.60015 1427.2617 422.83789 C 1429.7058 423.11912 1430.0117 422.83089 1430.0117 420.23633 C 1430.0117 416.05051 1426.1157 410.83493 1421.7461 409.17188 C 1420.0966 408.54408 1419.0391 408.23564 1417.9199 408.26562 z M 1325.7793 408.3125 C 1325.3365 408.334 1324.8944 408.384 1324.4531 408.4668 C 1316.791 409.90421 1312.9894 415.82736 1312.2656 427.45898 C 1311.3813 441.6677 1314.508 450.58872 1321.4277 453.60156 C 1325.5909 455.41422 1327.883 455.34026 1331.9277 453.26953 C 1335.7319 451.32192 1339.0117 446.00525 1339.0117 441.78711 C 1339.0117 439.42293 1338.6054 439.02148 1336.2051 439.02148 C 1333.7181 439.02148 1333.2894 439.50694 1332.4551 443.25781 C 1331.4086 447.96236 1328.6183 450.05125 1324.4473 449.25391 C 1320.8701 448.57009 1318.8902 444.00122 1318.2734 435.00195 C 1317.2681 420.33449 1319.7231 414.02148 1326.4297 414.02148 C 1330.2685 414.02148 1331.9939 415.6832 1332.9258 420.27734 C 1333.4494 422.85854 1334.1388 423.58611 1336.2988 423.83789 C 1338.6379 424.11057 1339.0117 423.79479 1339.0117 421.54883 C 1339.0117 414.35999 1332.4211 407.98939 1325.7793 408.3125 z M 1488.1426 408.36523 C 1483.6181 408.42583 1479.0677 411.07838 1476.3691 416.29688 C 1474.2421 420.4101 1473.4633 434.07035 1474.9473 441.21094 C 1475.5976 444.34002 1477.0775 448.10498 1478.2363 449.57812 C 1482.4501 454.9352 1490.0375 456.20118 1495.7012 452.49023 C 1500.2405 449.51594 1501.9662 443.75473 1501.9902 431.48438 C 1502.0092 421.99901 1501.6952 419.8186 1499.7617 415.98438 C 1497.1659 410.83677 1492.6671 408.30463 1488.1426 408.36523 z M 1090.3418 408.39453 C 1085.4275 408.20506 1080.3459 411.02956 1077.7637 416.09375 C 1076.3985 418.77088 1076.0137 422.05214 1076.0137 431.06055 C 1076.0137 441.0392 1076.3158 443.20172 1078.2617 447.06055 C 1082.0207 454.51494 1089.975 456.89785 1096.6035 452.55469 C 1101.6503 449.24795 1102.4918 446.54235 1102.8125 432.56836 C 1103.1448 418.09375 1102.176 414.61849 1096.6895 410.59375 C 1094.775 409.18935 1092.5756 408.48063 1090.3418 408.39453 z M 1522.375 408.4707 C 1519.4834 408.2965 1516.5281 408.98815 1514.3379 410.59375 C 1509.2252 414.34173 1508.0137 418.25535 1508.0137 431.06055 C 1508.0137 441.06109 1508.3115 443.18316 1510.2617 446.98633 C 1511.6596 449.71255 1513.8312 452.06402 1515.9961 453.19727 C 1519.7893 455.18292 1521.143 455.34681 1525.9238 454.39062 C 1527.6622 454.04296 1530.4184 452.51127 1532.0488 450.98828 C 1534.89 448.33418 1535.0117 447.86286 1535.0117 439.62109 L 1535.0117 431.02148 L 1527.9453 431.02148 L 1520.8789 431.02148 L 1521.1953 433.77148 C 1521.47 436.15898 1522.006 436.56257 1525.2617 436.83203 C 1528.9757 437.13938 1529.0117 437.18586 1529.0117 441.51172 C 1529.0117 446.63465 1527.1086 449.02148 1523.0234 449.02148 C 1515.5872 449.02148 1513.6592 445.31585 1513.5742 430.8457 C 1513.5192 421.50653 1513.7753 419.81563 1515.6113 417.3457 C 1519.6469 411.91656 1527.0835 413.51546 1528.5352 420.125 C 1529.0598 422.51374 1529.683 423.02148 1532.0918 423.02148 C 1533.6981 423.02148 1535.0059 422.68398 1535.0059 422.27148 C 1534.9829 419.22549 1532.5302 413.93502 1530.0293 411.53906 C 1528.094 409.68493 1525.2666 408.6449 1522.375 408.4707 z M 1345.0117 408.88867 L 1345.0117 431.45508 L 1345.0117 454.02148 L 1348.0117 454.02148 L 1351.0117 454.02148 L 1351.0117 443.52148 L 1351.0117 433.02148 L 1358.5117 433.02148 L 1366.0117 433.02148 L 1366.0117 443.52148 L 1366.0117 454.02148 L 1369.0117 454.02148 L 1372.0117 454.02148 L 1372.0117 431.52148 L 1372.0117 409.02148 L 1369.0117 409.02148 L 1366.0117 409.02148 L 1366.0117 418.52148 L 1366.0117 428.02148 L 1358.2168 428.02148 L 1350.4219 428.02148 L 1350.4668 418.77148 L 1350.5117 409.52148 L 1347.7617 409.20508 L 1345.0117 408.88867 z M 1625.0117 408.88867 L 1622.2617 409.20508 L 1619.5117 409.52148 L 1619.8633 418.77148 L 1620.2129 428.02148 L 1612.1133 428.02148 L 1604.0117 428.02148 L 1604.0117 418.52148 L 1604.0117 409.02148 L 1601.0117 409.02148 L 1598.0117 409.02148 L 1598.0117 431.52148 L 1598.0117 454.02148 L 1601.0117 454.02148 L 1604.0117 454.02148 L 1604.0117 443.52148 L 1604.0117 433.02148 L 1611.4766 433.02148 L 1618.9434 433.02148 L 1619.2266 443.27148 L 1619.5117 453.52148 L 1622.2617 453.83789 L 1625.0117 454.1543 L 1625.0117 431.52148 L 1625.0117 408.88867 z M 1541.0117 408.95703 L 1541.0117 431.48828 L 1541.0117 454.02148 L 1552.5117 454.02148 L 1564.0117 454.02148 L 1564.0117 451.52148 C 1564.0117 449.05088 1563.9117 449.02148 1555.5117 449.02148 L 1547.0117 449.02148 L 1547.0117 441.02148 L 1547.0117 433.02148 L 1553.9062 433.02148 C 1559.2848 433.02148 1560.932 432.67247 1561.4082 431.43164 C 1562.4715 428.66052 1561.0754 428.02148 1553.9531 428.02148 L 1547.0117 428.02148 L 1547.0117 421.0625 L 1547.0117 414.10352 L 1555.2617 413.8125 C 1562.7482 413.54894 1563.5117 413.3364 1563.5117 411.52148 C 1563.5117 409.65676 1562.7508 409.50191 1552.2617 409.23828 L 1541.0117 408.95703 z M 1567.0117 408.96484 L 1567.0117 411.49219 C 1567.0117 413.86035 1567.3297 414.02148 1572.0117 414.02148 L 1577.0117 414.02148 L 1577.0117 434.02148 L 1577.0117 454.02148 L 1580.0117 454.02148 L 1583.0117 454.02148 L 1583.0117 434.02148 L 1583.0117 414.02148 L 1588.582 414.02148 C 1593.786 414.02148 1594.1306 413.87374 1593.832 411.77148 C 1593.5214 409.5839 1593.1441 409.51347 1580.2617 409.24219 L 1567.0117 408.96484 z M 999.96289 409.00195 C 997.74672 409.02105 997.60921 410.28455 992.95703 429.26953 C 991.10425 436.83049 989.30999 442.45549 988.96875 441.76953 C 988.6275 441.08358 986.62861 433.43398 984.52734 424.77148 L 980.70703 409.02148 L 977.85938 409.02148 C 976.29336 409.02148 975.01172 409.30265 975.01172 409.64453 C 975.01172 410.69027 986.17447 452.47009 986.66797 453.27148 C 986.92199 453.68398 988.21579 454.02148 989.54297 454.02148 C 991.59798 454.02148 992.17769 453.2425 993.44727 448.77148 C 997.63983 434.00662 1004.0117 410.50956 1004.0117 409.81445 C 1004.0117 409.37912 1002.6827 409.02148 1001.0586 409.02148 C 1000.6379 409.02148 1000.2795 408.99895 999.96289 409.00195 z M 879.0293 409.00977 C 878.71288 409.00277 878.35252 409.02148 877.93359 409.02148 C 876.37749 409.02148 875.09431 409.14329 875.01562 409.29297 C 875.01463 409.29597 875.01272 409.30099 875.01172 409.30469 L 875.01172 409.30664 C 875.01172 409.46296 876.81172 419.40432 879.01172 431.39844 C 881.21172 443.39256 883.01172 453.38872 883.01172 453.61328 C 883.01172 453.83784 884.2913 454.02148 885.85352 454.02148 L 888.69336 454.02148 L 892.14062 437.39648 L 895.58789 420.77148 L 899.05078 437.14648 C 902.45014 453.22553 902.56055 453.52854 905.22656 453.83594 C 907.37444 454.08359 908.0535 453.66575 908.4707 451.83594 C 909.42338 447.65751 916.01172 411.18607 916.01172 410.0918 C 916.01172 408.83442 911.36846 408.63625 910.61133 409.86133 C 910.32621 410.32265 909.13697 416.73515 907.96875 424.11133 C 906.80053 431.48751 905.59442 438.19648 905.28711 439.02148 C 904.9798 439.84648 903.3149 433.54648 901.58789 425.02148 C 898.53437 409.94853 898.37471 409.5128 895.8125 409.21289 C 893.34356 408.92389 893.10407 409.27009 892 414.71289 C 891.35197 417.90752 889.9656 424.25175 888.91797 428.81055 C 887.87033 433.36935 887.01172 438.0562 887.01172 439.22656 C 887.01172 443.88046 885.9703 439.79602 884.01367 427.4668 C 881.29233 410.31884 881.24425 409.05707 879.0293 409.00977 z M 921.01172 409.02148 L 921.01172 431.52148 L 921.01172 454.02148 L 932.01172 454.02148 L 943.01172 454.02148 L 943.01172 451.52148 C 943.01172 449.06318 942.87838 449.02148 935.01172 449.02148 L 927.01172 449.02148 L 927.01172 441.02148 L 927.01172 433.02148 L 934.01172 433.02148 C 940.81172 433.02148 941.01172 432.95008 941.01172 430.52148 C 941.01172 428.09288 940.81172 428.02148 934.01172 428.02148 L 927.01172 428.02148 L 927.01172 421.02148 L 927.01172 414.02148 L 935.01172 414.02148 C 942.87838 414.02148 943.01172 413.97978 943.01172 411.52148 L 943.01172 409.02148 L 932.01172 409.02148 L 921.01172 409.02148 z M 961.08008 409.02148 C 959.1552 409.02148 957.96617 409.62283 957.61914 410.77148 C 955.06772 419.21665 946.01172 452.21239 946.01172 453.06445 C 946.01172 453.6645 947.23218 454.01193 948.72266 453.83789 C 951.06755 453.5641 951.64547 452.78052 953.01758 448.02148 C 953.88973 444.99648 955.14623 442.56609 955.80859 442.62109 C 956.47095 442.67609 959.41604 442.78859 962.35352 442.87109 L 967.69336 443.02148 L 968.92578 448.52148 C 970.07479 453.65577 970.35041 454.02148 973.08398 454.02148 C 974.69454 454.02148 976.01172 453.77426 976.01172 453.4707 C 976.01172 453.16714 973.31172 443.28936 970.01172 431.52148 C 966.71172 419.7536 964.01172 409.87778 964.01172 409.57422 C 964.01172 409.27066 962.69302 409.02148 961.08008 409.02148 z M 1008.0117 409.02148 L 1008.0117 431.52148 L 1008.0117 454.02148 L 1019.5781 454.02148 L 1031.1445 454.02148 L 1030.8281 451.36133 L 1030.5117 448.70117 L 1022.2617 448.92578 L 1014.0117 449.14844 L 1014.0117 441.08594 L 1014.0117 433.02148 L 1021.5117 433.02148 C 1028.845 433.02148 1029.0117 432.96598 1029.0117 430.52148 C 1029.0117 428.07708 1028.845 428.02148 1021.5117 428.02148 L 1014.0117 428.02148 L 1014.0117 421.02148 L 1014.0117 414.02148 L 1022.5117 414.02148 C 1030.9117 414.02148 1031.0117 413.99208 1031.0117 411.52148 L 1031.0117 409.02148 L 1019.5117 409.02148 L 1008.0117 409.02148 z M 1070.084 409.02148 C 1067.4316 409.02148 1066.9558 409.56284 1065.0371 414.77148 C 1060.3575 427.47555 1059.7173 429.02072 1059.127 429.01172 C 1058.7893 429.00672 1056.9367 424.6189 1055.0117 419.26172 C 1051.6281 409.84523 1051.4036 409.51192 1048.2617 409.20898 C 1046.4742 409.03664 1045.0117 409.15388 1045.0117 409.4707 C 1045.0117 409.78748 1047.4867 415.92636 1050.5117 423.11133 C 1055.7915 435.65201 1056.0117 436.53107 1056.0117 445.09766 L 1056.0117 454.02148 L 1059.0117 454.02148 L 1062.0117 454.02148 L 1062.0117 445.65625 C 1062.0117 437.81094 1062.3538 436.45793 1067.5 423.90625 C 1070.5182 416.54489 1072.99 410.18398 1073 409.77148 C 1073.01 409.35898 1071.6945 409.02148 1070.084 409.02148 z M 1109.0117 409.02148 L 1109.0352 426.27148 C 1109.0532 440.86982 1109.3397 444.1459 1110.9004 447.58203 C 1114.0887 454.60137 1122.918 456.9362 1129.6348 452.53516 C 1134.2151 449.53407 1135.0117 445.67837 1135.0117 426.55469 L 1135.0117 409.02148 L 1132.0117 409.02148 L 1129.0117 409.02148 L 1129.0117 426.79883 C 1129.0117 446.94383 1128.4184 449.03326 1122.7051 449.00586 C 1115.7731 448.97266 1115.0117 446.70557 1115.0117 426.08789 L 1115.0117 409.02148 L 1112.0117 409.02148 L 1109.0117 409.02148 z M 1142.0117 409.02148 L 1142.0117 431.52148 L 1142.0117 454.02148 L 1145.0117 454.02148 L 1148.0117 454.02148 L 1148.0117 445.02148 L 1148.0117 436.02148 L 1151.3047 436.02148 C 1154.5346 436.02148 1154.6594 436.19137 1157.957 445.02148 C 1161.251 453.84217 1161.3834 454.02148 1164.5977 454.02148 L 1167.877 454.02148 L 1163.9375 444.33594 L 1159.9961 434.64844 L 1162.6699 431.85742 C 1166.108 428.26882 1167.0721 419.97287 1164.6055 415.20312 C 1162.2309 410.61111 1158.3651 409.02148 1149.5625 409.02148 L 1142.0117 409.02148 z M 1185.0117 409.02148 L 1185.0117 431.62109 L 1185.0117 454.2207 L 1194.0957 453.87109 C 1202.9049 453.53212 1203.2663 453.42327 1206.0957 450.25586 C 1208.4999 447.56448 1209.0117 446.10553 1209.0117 441.95703 C 1209.0117 436.85888 1206.8267 431.02148 1204.918 431.02148 C 1204.3447 431.02148 1204.878 429.61673 1206.1016 427.89844 C 1210.288 422.01926 1208.2576 412.20569 1202.3945 409.97656 C 1201.0125 409.45111 1196.5365 409.02148 1192.4473 409.02148 L 1185.0117 409.02148 z M 1258.918 409.02148 C 1257.1423 409.02148 1255.9625 409.64975 1255.6328 410.77148 C 1255.3499 411.73398 1252.6248 421.1313 1249.5781 431.6543 C 1246.5315 442.1773 1243.7475 451.54863 1243.3906 452.47852 C 1242.8491 453.8897 1243.2889 454.11568 1246.0508 453.8457 C 1249.1135 453.54632 1249.4683 453.1309 1250.8145 448.27148 C 1252.2407 443.12297 1252.3435 443.01998 1256.1406 442.92188 C 1258.2701 442.86687 1261.2344 442.77766 1262.7285 442.72266 C 1265.2254 442.63076 1265.5573 443.08338 1266.8359 448.32227 C 1268.1292 453.62106 1268.4324 454.02148 1271.1211 454.02148 C 1272.7118 454.02148 1274.0117 453.73397 1274.0117 453.38281 C 1274.0117 453.03165 1272.7129 448.19415 1271.125 442.63281 C 1269.5371 437.07147 1266.7643 427.23398 1264.9629 420.77148 C 1261.7896 409.38741 1261.6019 409.02148 1258.918 409.02148 z M 1279.0879 409.02148 L 1278.8008 430.77148 C 1278.6429 442.73398 1278.652 452.85898 1278.8223 453.27148 C 1278.9923 453.68398 1280.4852 454.02148 1282.1406 454.02148 L 1285.1504 454.02148 L 1284.832 438.11523 C 1284.6567 429.36671 1284.736 422.36147 1285.0117 422.54688 C 1285.2867 422.73228 1288.6617 429.87442 1292.5117 438.41992 C 1299.4483 453.81639 1299.5412 453.95853 1302.7617 453.99023 L 1306.0117 454.02148 L 1306.0117 431.52148 L 1306.0117 409.02148 L 1303.0117 409.02148 L 1300.0117 409.02148 L 1300.0117 425.77148 L 1300.0117 442.51953 L 1294.4219 430.52148 C 1291.3466 423.92215 1287.9101 416.38398 1286.7871 413.77148 C 1285.0393 409.70546 1284.3394 409.02148 1281.918 409.02148 L 1279.0879 409.02148 z M 1379.0117 409.02148 L 1379.0117 431.52148 L 1379.0117 454.02148 L 1390.0117 454.02148 L 1401.0117 454.02148 L 1401.0117 451.52148 C 1401.0117 449.06318 1400.8784 449.02148 1393.0117 449.02148 L 1385.0117 449.02148 L 1385.0117 441.02148 L 1385.0117 433.02148 L 1392.0117 433.02148 C 1398.8117 433.02148 1399.0117 432.95008 1399.0117 430.52148 C 1399.0117 428.09288 1398.8117 428.02148 1392.0117 428.02148 L 1385.0117 428.02148 L 1385.0117 421.02148 L 1385.0117 414.02148 L 1393.0117 414.02148 C 1400.8784 414.02148 1401.0117 413.97978 1401.0117 411.52148 L 1401.0117 409.02148 L 1390.0117 409.02148 L 1379.0117 409.02148 z M 1445.0117 409.02148 L 1445.0117 411.52148 C 1445.0117 413.85481 1445.345 414.02148 1450.0117 414.02148 L 1455.0117 414.02148 L 1455.0117 434.02148 L 1455.0117 454.02148 L 1458.0117 454.02148 L 1461.0117 454.02148 L 1461.0117 434.02148 L 1461.0117 414.02148 L 1466.0117 414.02148 C 1470.6784 414.02148 1471.0117 413.85481 1471.0117 411.52148 L 1471.0117 409.02148 L 1458.0117 409.02148 L 1445.0117 409.02148 z M 1633.0117 409.02148 L 1633.0117 431.52148 L 1633.0117 454.02148 L 1644.5117 454.02148 L 1656.0117 454.02148 L 1656.0117 451.52148 C 1656.0117 449.05088 1655.9117 449.02148 1647.5117 449.02148 L 1639.0117 449.02148 L 1639.0117 441.02148 L 1639.0117 433.02148 L 1646.0117 433.02148 C 1652.8117 433.02148 1653.0117 432.95008 1653.0117 430.52148 C 1653.0117 428.09288 1652.8117 428.02148 1646.0117 428.02148 L 1639.0117 428.02148 L 1639.0117 421.02148 L 1639.0117 414.02148 L 1647.0117 414.02148 C 1654.8784 414.02148 1655.0117 413.97978 1655.0117 411.52148 L 1655.0117 409.02148 L 1644.0117 409.02148 L 1633.0117 409.02148 z M 1661.0117 409.02148 L 1661.0117 431.52148 L 1661.0117 454.02148 L 1664.0117 454.02148 L 1667.0117 454.02148 L 1667.0117 445.02148 L 1667.0117 436.02148 L 1670.2734 436.02148 C 1673.4545 436.02148 1673.6167 436.23997 1677.0117 445.02148 C 1680.3859 453.74921 1680.5892 454.02148 1683.6855 454.02148 L 1686.877 454.02148 L 1682.9375 444.33594 L 1678.9961 434.64844 L 1681.6895 431.83594 C 1685.4008 427.9621 1686.0965 419.07557 1683.0664 414.24805 C 1680.4231 410.03684 1677.587 409.02148 1668.4473 409.02148 L 1661.0117 409.02148 z M 1215.5117 409.52148 L 1215.2402 430.49609 C 1215.0912 442.03188 1215.1892 452.04438 1215.459 452.74609 C 1215.7283 453.4478 1217.3133 454.02148 1218.9805 454.02148 L 1222.0117 454.02148 L 1222.0117 444.95898 L 1222.0117 435.89453 L 1225.2363 436.20898 C 1228.2956 436.50629 1228.6343 436.96966 1231.8379 445.27148 C 1235.1464 453.84493 1235.2825 454.02148 1238.5469 454.02148 L 1241.877 454.02148 L 1237.9609 444.39648 L 1234.0449 434.77148 L 1236.4883 431.86719 C 1240.992 426.51445 1241.025 417.47384 1236.5566 412.27539 C 1234.288 409.63569 1233.8028 409.52148 1224.8516 409.52148 L 1215.5117 409.52148 z M 1148.0117 413.76172 L 1152.7012 414.29102 C 1158.3203 414.92437 1160.0117 416.83739 1160.0117 422.55859 C 1160.0117 427.87636 1157.7613 430.02148 1152.1836 430.02148 L 1148.0117 430.02148 L 1148.0117 421.89258 L 1148.0117 413.76172 z M 1222.0117 413.76172 L 1226.7012 414.29102 C 1232.1763 414.90814 1234.0117 416.84062 1234.0117 421.99023 C 1234.0117 427.60218 1231.7354 430.02148 1226.4551 430.02148 L 1222.0117 430.02148 L 1222.0117 421.89258 L 1222.0117 413.76172 z M 1191.0117 414.02148 L 1194.8223 414.02148 C 1200.3518 414.02148 1202.4668 415.95887 1202.4668 421.02148 C 1202.4668 426.08409 1200.3518 428.02148 1194.8223 428.02148 L 1191.0117 428.02148 L 1191.0117 421.02148 L 1191.0117 414.02148 z M 1667.0117 414.02148 L 1671.0117 414.02148 C 1676.4765 414.02148 1679.0117 416.66673 1679.0117 422.36719 C 1679.0117 427.88961 1676.8313 430.02148 1671.1836 430.02148 L 1667.0117 430.02148 L 1667.0117 422.02148 L 1667.0117 414.02148 z M 1089.5215 414.0625 C 1091.4122 414.0685 1093.304 414.68701 1094.418 415.91797 C 1098.4461 420.36904 1098.7264 441.57389 1094.8223 446.53711 C 1091.8608 450.30203 1086.5814 450.00492 1084.1055 445.93359 C 1080.2939 439.6659 1080.6332 420.30823 1084.6328 415.88867 C 1085.7408 414.66439 1087.6308 414.0565 1089.5215 414.0625 z M 1488.2246 414.08984 C 1488.9518 414.11654 1489.7344 414.23648 1490.5742 414.44727 C 1494.6745 415.47637 1496.0078 419.73369 1496.0078 431.72266 C 1496.0078 440.72443 1495.675 443.06253 1494.0234 445.77148 C 1491.4046 450.06662 1486.222 450.37453 1483.1113 446.41992 C 1480.3814 442.9495 1479.68 438.59356 1480.2129 428.43945 C 1480.7447 418.30691 1483.1345 413.90298 1488.2246 414.08984 z M 960.75781 418.52148 L 962.32617 424.02148 C 963.18881 427.04648 964.33488 431.20898 964.87305 433.27148 L 965.85156 437.02148 L 960.93164 437.02148 C 958.22597 437.02148 956.03289 436.68398 956.05859 436.27148 C 956.08429 435.85898 957.15245 431.69648 958.43164 427.02148 L 960.75781 418.52148 z M 1258.9277 420.36133 C 1259.5969 420.30523 1260.2352 422.73499 1261.4922 427.74023 C 1262.351 431.16004 1263.3193 434.64754 1263.6426 435.49023 C 1264.1234 436.74318 1263.2993 437.02148 1259.123 437.02148 C 1256.3141 437.02148 1254.0212 436.68398 1254.0312 436.27148 C 1254.0412 435.85898 1255.1165 431.69648 1256.4238 427.02148 C 1257.6436 422.65956 1258.2991 420.41403 1258.9277 420.36133 z M 1191.0117 433.02148 L 1195.3574 433.02148 C 1201.0232 433.02148 1203.0117 435.17244 1203.0117 441.29492 C 1203.0117 446.80873 1200.6558 449.02148 1194.7891 449.02148 L 1191.0117 449.02148 L 1191.0117 441.02148 L 1191.0117 433.02148 z "
       inkscape:label="texte" />
  </g>
</svg>
